FuturaBT-Heavy.ufo
<glyph name="numbersign" format="2">
  <advance width="1575"/>
  <unicode hex="0023"/>
  <outline>
    <contour>
      <point x="709" y="848" type="line"/>
      <point x="621" y="604" type="line"/>
      <point x="872" y="604" type="line"/>
      <point x="958" y="848" type="line"/>
    </contour>
    <contour>
      <point x="709" y="1464" type="line"/>
      <point x="930" y="1464" type="line"/>
      <point x="784" y="1049" type="line"/>
      <point x="1026" y="1049" type="line"/>
      <point x="1174" y="1464" type="line"/>
      <point x="1395" y="1464" type="line"/>
      <point x="1247" y="1049" type="line"/>
      <point x="1530" y="1049" type="line"/>
      <point x="1456" y="848" type="line"/>
      <point x="1176" y="848" type="line"/>
      <point x="1092" y="606" type="line"/>
      <point x="1382" y="606" type="line"/>
      <point x="1311" y="406" type="line"/>
      <point x="1020" y="406" type="line"/>
      <point x="872" y="-10" type="line"/>
      <point x="651" y="-10" type="line"/>
      <point x="799" y="406" type="line"/>
      <point x="555" y="406" type="line"/>
      <point x="406" y="-10" type="line"/>
      <point x="186" y="-10" type="line"/>
      <point x="332" y="406" type="line"/>
      <point x="45" y="406" type="line"/>
      <point x="121" y="606" type="line"/>
      <point x="403" y="606" type="line"/>
      <point x="489" y="848" type="line"/>
      <point x="190" y="848" type="line"/>
      <point x="264" y="1049" type="line"/>
      <point x="561" y="1049" type="line"/>
    </contour>
  </outline>
</glyph>
<glyph name="dollar" format="2">
  <advance width="1255"/>
  <unicode hex="0024"/>
  <outline>
    <contour>
      <point x="111" y="219" type="qcurve"/>
      <point x="285" y="406" type="line"/>
      <point x="321" y="326"/>
      <point x="463" y="240"/>
      <point x="559" y="240" type="qcurve"/>
      <point x="559" y="629" type="line"/>
      <point x="325" y="728"/>
      <point x="131" y="931"/>
      <point x="131" y="1071" type="qcurve" smooth="yes"/>
      <point x="131" y="1230"/>
      <point x="383" y="1448"/>
      <point x="590" y="1464" type="qcurve"/>
      <point x="590" y="1579" type="line"/>
      <point x="684" y="1579" type="line"/>
      <point x="684" y="1463" type="line"/>
      <point x="800" y="1459"/>
      <point x="978" y="1371"/>
      <point x="1047" y="1282" type="qcurve"/>
      <point x="862" y="1114" type="line"/>
      <point x="828" y="1170"/>
      <point x="745" y="1227"/>
      <point x="684" y="1235" type="qcurve"/>
      <point x="684" y="868" type="line"/>
      <point x="896" y="783"/>
      <point x="1096" y="571"/>
      <point x="1096" y="432" type="qcurve" smooth="yes"/>
      <point x="1096" y="255"/>
      <point x="858" y="24"/>
      <point x="655" y="6" type="qcurve"/>
      <point x="655" y="-152" type="line"/>
      <point x="559" y="-152" type="line"/>
      <point x="559" y="4" type="line"/>
      <point x="398" y="9"/>
      <point x="169" y="119"/>
    </contour>
    <contour>
      <point x="590" y="1235" type="line"/>
      <point x="519" y="1220"/>
      <point x="436" y="1133"/>
      <point x="436" y="1075" type="qcurve" smooth="yes"/>
      <point x="436" y="1021"/>
      <point x="513" y="935"/>
      <point x="590" y="903" type="qcurve"/>
    </contour>
    <contour>
      <point x="655" y="250" type="line"/>
      <point x="724" y="269"/>
      <point x="803" y="362"/>
      <point x="803" y="424" type="qcurve" smooth="yes"/>
      <point x="803" y="478"/>
      <point x="735" y="554"/>
      <point x="655" y="588" type="qcurve"/>
    </contour>
  </outline>
</glyph>
<glyph name="percent" format="2">
  <advance width="1731"/>
  <unicode hex="0025"/>
  <outline>
    <contour>
      <point x="741" y="1075" type="qcurve" smooth="yes"/>
      <point x="741" y="884"/>
      <point x="556" y="670"/>
      <point x="391" y="670" type="qcurve" smooth="yes"/>
      <point x="225" y="670"/>
      <point x="39" y="883"/>
      <point x="39" y="1075" type="qcurve" smooth="yes"/>
      <point x="39" y="1264"/>
      <point x="226" y="1479"/>
      <point x="391" y="1479" type="qcurve" smooth="yes"/>
      <point x="558" y="1479"/>
      <point x="741" y="1267"/>
    </contour>
    <contour>
      <point x="254" y="1075" type="qcurve" smooth="yes"/>
      <point x="254" y="950"/>
      <point x="326" y="813"/>
      <point x="391" y="813" type="qcurve" smooth="yes"/>
      <point x="459" y="813"/>
      <point x="528" y="946"/>
      <point x="528" y="1075" type="qcurve" smooth="yes"/>
      <point x="528" y="1202"/>
      <point x="458" y="1335"/>
      <point x="391" y="1335" type="qcurve" smooth="yes"/>
      <point x="325" y="1335"/>
      <point x="254" y="1201"/>
    </contour>
    <contour>
      <point x="510" y="-39" type="line"/>
      <point x="360" y="-39" type="line"/>
      <point x="1217" y="1479" type="line"/>
      <point x="1366" y="1479" type="line"/>
    </contour>
    <contour>
      <point x="1692" y="367" type="qcurve" smooth="yes"/>
      <point x="1692" y="176"/>
      <point x="1505" y="-39"/>
      <point x="1339" y="-39" type="qcurve" smooth="yes"/>
      <point x="1173" y="-39"/>
      <point x="987" y="175"/>
      <point x="987" y="367" type="qcurve" smooth="yes"/>
      <point x="987" y="556"/>
      <point x="1174" y="770"/>
      <point x="1339" y="770" type="qcurve" smooth="yes"/>
      <point x="1507" y="770"/>
      <point x="1692" y="559"/>
    </contour>
    <contour>
      <point x="1202" y="365" type="qcurve" smooth="yes"/>
      <point x="1202" y="240"/>
      <point x="1274" y="104"/>
      <point x="1339" y="104" type="qcurve" smooth="yes"/>
      <point x="1407" y="104"/>
      <point x="1479" y="239"/>
      <point x="1479" y="367" type="qcurve" smooth="yes"/>
      <point x="1479" y="493"/>
      <point x="1408" y="627"/>
      <point x="1341" y="627" type="qcurve" smooth="yes"/>
      <point x="1275" y="627"/>
      <point x="1202" y="490"/>
    </contour>
  </outline>
</glyph>
<glyph name="ampersand" format="2">
  <advance width="1464"/>
  <unicode hex="0026"/>
  <outline>
    <contour>
      <point x="614" y="934" type="line"/>
      <point x="666" y="965" type="line" smooth="yes"/>
      <point x="723" y="1000"/>
      <point x="780" y="1087"/>
      <point x="780" y="1139" type="qcurve" smooth="yes"/>
      <point x="780" y="1202"/>
      <point x="703" y="1280"/>
      <point x="643" y="1280" type="qcurve" smooth="yes"/>
      <point x="578" y="1280"/>
      <point x="498" y="1201"/>
      <point x="498" y="1137" type="qcurve" smooth="yes"/>
      <point x="498" y="1108"/>
      <point x="521" y="1048"/>
      <point x="543" y="1022" type="qcurve" smooth="yes"/>
    </contour>
    <contour>
      <point x="819" y="317" type="qcurve"/>
      <point x="543" y="649" type="line"/>
      <point x="512" y="627" type="line" smooth="yes"/>
      <point x="437" y="572"/>
      <point x="367" y="464"/>
      <point x="367" y="403" type="qcurve" smooth="yes"/>
      <point x="367" y="323"/>
      <point x="489" y="205"/>
      <point x="573" y="205" type="qcurve" smooth="yes"/>
      <point x="649" y="205"/>
      <point x="775" y="262"/>
    </contour>
    <contour>
      <point x="1094" y="0" type="line"/>
      <point x="969" y="143" type="line"/>
      <point x="872" y="48"/>
      <point x="685" y="-35"/>
      <point x="567" y="-35" type="qcurve" smooth="yes"/>
      <point x="351" y="-35"/>
      <point x="96" y="195"/>
      <point x="96" y="385" type="qcurve" smooth="yes"/>
      <point x="96" y="510"/>
      <point x="249" y="722"/>
      <point x="406" y="815" type="qcurve"/>
      <point x="323" y="897"/>
      <point x="254" y="1047"/>
      <point x="254" y="1135" type="qcurve" smooth="yes"/>
      <point x="254" y="1284"/>
      <point x="467" y="1462"/>
      <point x="647" y="1462" type="qcurve" smooth="yes"/>
      <point x="820" y="1462"/>
      <point x="1024" y="1294"/>
      <point x="1024" y="1153" type="qcurve" smooth="yes"/>
      <point x="1024" y="1056"/>
      <point x="905" y="892"/>
      <point x="756" y="791" type="qcurve"/>
      <point x="1004" y="504" type="line"/>
      <point x="1068" y="565"/>
      <point x="1172" y="676"/>
      <point x="1217" y="731" type="qcurve"/>
      <point x="1378" y="559" type="line"/>
      <point x="1327" y="502"/>
      <point x="1219" y="387"/>
      <point x="1155" y="324" type="qcurve"/>
      <point x="1423" y="0" type="line"/>
    </contour>
  </outline>
</glyph>
<glyph name="comma" format="2">
  <advance width="629"/>
  <unicode hex="002C"/>
  <outline>
    <contour>
      <point x="63" y="-332" type="line"/>
      <point x="256" y="295" type="line"/>
      <point x="563" y="295" type="line"/>
      <point x="254" y="-332" type="line"/>
    </contour>
  </outline>
</glyph>
<glyph name="period" format="2">
  <advance width="629"/>
  <unicode hex="002E"/>
  <outline>
    <contour>
      <point x="141" y="141" type="qcurve" smooth="yes"/>
      <point x="141" y="213"/>
      <point x="242" y="315"/>
      <point x="313" y="315" type="qcurve" smooth="yes"/>
      <point x="384" y="315"/>
      <point x="485" y="213"/>
      <point x="485" y="141" type="qcurve" smooth="yes"/>
      <point x="485" y="70"/>
      <point x="385" y="-29"/>
      <point x="313" y="-29" type="qcurve" smooth="yes"/>
      <point x="242" y="-29"/>
      <point x="141" y="71"/>
    </contour>
  </outline>
</glyph>
<glyph name="slash" format="2">
  <advance width="930"/>
  <unicode hex="002F"/>
  <outline>
    <contour>
      <point x="0" y="-190" type="line"/>
      <point x="717" y="1497" type="line"/>
      <point x="930" y="1497" type="line"/>
      <point x="213" y="-190" type="line"/>
    </contour>
  </outline>
</glyph>
<glyph name="two" format="2">
  <advance width="1255"/>
  <unicode hex="0032"/>
  <outline>
    <contour>
      <point x="1094" y="242" type="line"/>
      <point x="1094" y="0" type="line"/>
      <point x="80" y="0" type="line"/>
      <point x="600" y="682" type="line" smooth="yes"/>
      <point x="708" y="823"/>
      <point x="793" y="985"/>
      <point x="793" y="1047" type="qcurve" smooth="yes"/>
      <point x="793" y="1133"/>
      <point x="690" y="1231"/>
      <point x="600" y="1231" type="qcurve" smooth="yes"/>
      <point x="516" y="1231"/>
      <point x="416" y="1108"/>
      <point x="416" y="1004" type="qcurve" smooth="yes"/>
      <point x="416" y="997" type="line"/>
      <point x="121" y="997" type="line"/>
      <point x="121" y="1022" type="line" smooth="yes"/>
      <point x="121" y="1240"/>
      <point x="371" y="1479"/>
      <point x="600" y="1479" type="qcurve" smooth="yes"/>
      <point x="834" y="1479"/>
      <point x="1094" y="1265"/>
      <point x="1094" y="1073" type="qcurve" smooth="yes"/>
      <point x="1094" y="857"/>
      <point x="756" y="435" type="qcurve"/>
      <point x="735" y="410" type="line"/>
      <point x="600" y="242" type="line"/>
    </contour>
  </outline>
</glyph>
<glyph name="three" format="2">
  <advance width="1255"/>
  <unicode hex="0033"/>
  <outline>
    <contour>
      <point x="106" y="387" type="line"/>
      <point x="395" y="387" type="line"/>
      <point x="395" y="383" type="line" smooth="yes"/>
      <point x="395" y="304"/>
      <point x="514" y="205"/>
      <point x="610" y="205" type="qcurve" smooth="yes"/>
      <point x="721" y="205"/>
      <point x="842" y="315"/>
      <point x="842" y="416" type="qcurve" smooth="yes"/>
      <point x="842" y="523"/>
      <point x="717" y="633"/>
      <point x="596" y="633" type="qcurve" smooth="yes"/>
      <point x="590" y="633"/>
      <point x="564" y="631"/>
      <point x="557" y="631" type="qcurve"/>
      <point x="557" y="887" type="line"/>
      <point x="563" y="887"/>
      <point x="587" y="885"/>
      <point x="592" y="885" type="qcurve" smooth="yes"/>
      <point x="700" y="885"/>
      <point x="809" y="977"/>
      <point x="809" y="1069" type="qcurve" smooth="yes"/>
      <point x="809" y="1147"/>
      <point x="710" y="1243"/>
      <point x="629" y="1243" type="qcurve" smooth="yes"/>
      <point x="543" y="1243"/>
      <point x="445" y="1165"/>
      <point x="436" y="1092" type="qcurve"/>
      <point x="158" y="1092" type="line"/>
      <point x="169" y="1278"/>
      <point x="417" y="1479"/>
      <point x="639" y="1479" type="qcurve" smooth="yes"/>
      <point x="852" y="1479"/>
      <point x="1102" y="1269"/>
      <point x="1102" y="1090" type="qcurve" smooth="yes"/>
      <point x="1102" y="965"/>
      <point x="967" y="790"/>
      <point x="856" y="770" type="qcurve"/>
      <point x="985" y="742"/>
      <point x="1137" y="540"/>
      <point x="1137" y="395" type="qcurve" smooth="yes"/>
      <point x="1137" y="194"/>
      <point x="851" y="-39"/>
      <point x="604" y="-39" type="qcurve" smooth="yes"/>
      <point x="379" y="-39"/>
      <point x="106" y="189"/>
      <point x="106" y="375" type="qcurve" smooth="yes"/>
    </contour>
  </outline>
</glyph>
<glyph name="four" format="2">
  <advance width="1255"/>
  <unicode hex="0034"/>
  <outline>
    <contour>
      <point x="752" y="0" type="line"/>
      <point x="752" y="281" type="line"/>
      <point x="47" y="281" type="line"/>
      <point x="47" y="416" type="line"/>
      <point x="752" y="1479" type="line"/>
      <point x="1020" y="1479" type="line"/>
      <point x="1020" y="489" type="line"/>
      <point x="1174" y="489" type="line"/>
      <point x="1174" y="281" type="line"/>
      <point x="1020" y="281" type="line"/>
      <point x="1020" y="0" type="line"/>
    </contour>
    <contour>
      <point x="756" y="489" type="line"/>
      <point x="756" y="993" type="line" smooth="yes"/>
      <point x="756" y="1067"/>
      <point x="761" y="1143"/>
      <point x="766" y="1175" type="qcurve"/>
      <point x="747" y="1124"/>
      <point x="695" y="1022"/>
      <point x="664" y="973" type="qcurve" smooth="yes"/>
      <point x="348" y="489" type="line"/>
    </contour>
  </outline>
</glyph>
<glyph name="seven" format="2">
  <advance width="1255"/>
  <unicode hex="0037"/>
  <outline>
    <contour>
      <point x="201" y="0" type="line"/>
      <point x="786" y="1204" type="line"/>
      <point x="127" y="1204" type="line"/>
      <point x="127" y="1450" type="line"/>
      <point x="1171" y="1450" type="line"/>
      <point x="1171" y="1358" type="line"/>
      <point x="514" y="0" type="line"/>
    </contour>
  </outline>
</glyph>
<glyph name="nine" format="2">
  <advance width="1255"/>
  <unicode hex="0039"/>
  <outline>
    <contour>
      <point x="856" y="991" type="qcurve" smooth="yes"/>
      <point x="856" y="1098"/>
      <point x="736" y="1223"/>
      <point x="633" y="1223" type="qcurve" smooth="yes"/>
      <point x="533" y="1223"/>
      <point x="410" y="1094"/>
      <point x="410" y="991" type="qcurve" smooth="yes"/>
      <point x="410" y="881"/>
      <point x="531" y="756"/>
      <point x="639" y="756" type="qcurve" smooth="yes"/>
      <point x="735" y="756"/>
      <point x="856" y="887"/>
    </contour>
    <contour>
      <point x="733" y="567" type="line"/>
      <point x="691" y="545"/>
      <point x="602" y="524"/>
      <point x="545" y="524" type="qcurve" smooth="yes"/>
      <point x="358" y="524"/>
      <point x="121" y="778"/>
      <point x="121" y="977" type="qcurve" smooth="yes"/>
      <point x="121" y="1203"/>
      <point x="409" y="1479"/>
      <point x="647" y="1479" type="qcurve" smooth="yes"/>
      <point x="872" y="1479"/>
      <point x="1143" y="1205"/>
      <point x="1143" y="979" type="qcurve" smooth="yes"/>
      <point x="1143" y="846"/>
      <point x="1020" y="530"/>
      <point x="897" y="346" type="qcurve" smooth="yes"/>
      <point x="666" y="0" type="line"/>
      <point x="315" y="0" type="line"/>
    </contour>
  </outline>
</glyph>
<glyph name="semicolon" format="2">
  <advance width="688"/>
  <unicode hex="003B"/>
  <outline>
    <contour>
      <point x="264" y="797" type="qcurve" smooth="yes"/>
      <point x="264" y="868"/>
      <point x="365" y="967"/>
      <point x="436" y="967" type="qcurve" smooth="yes"/>
      <point x="508" y="967"/>
      <point x="608" y="868"/>
      <point x="608" y="797" type="qcurve" smooth="yes"/>
      <point x="608" y="725"/>
      <point x="508" y="625"/>
      <point x="436" y="625" type="qcurve" smooth="yes"/>
      <point x="365" y="625"/>
      <point x="264" y="726"/>
    </contour>
    <contour>
      <point x="80" y="-332" type="line"/>
      <point x="270" y="295" type="line"/>
      <point x="580" y="295" type="line"/>
      <point x="270" y="-332" type="line"/>
    </contour>
  </outline>
</glyph>
<glyph name="question" format="2">
  <advance width="1186"/>
  <unicode hex="003F"/>
  <outline>
    <contour>
      <point x="397" y="133" type="qcurve" smooth="yes"/>
      <point x="397" y="204"/>
      <point x="498" y="303"/>
      <point x="569" y="303" type="qcurve" smooth="yes"/>
      <point x="641" y="303"/>
      <point x="741" y="204"/>
      <point x="741" y="133" type="qcurve" smooth="yes"/>
      <point x="741" y="62"/>
      <point x="641" y="-39"/>
      <point x="569" y="-39" type="qcurve" smooth="yes"/>
      <point x="498" y="-39"/>
      <point x="397" y="63"/>
    </contour>
    <contour>
      <point x="707" y="428" type="line"/>
      <point x="432" y="428" type="line"/>
      <point x="432" y="856" type="line"/>
      <point x="520" y="856" type="line" smooth="yes"/>
      <point x="622" y="856"/>
      <point x="735" y="973"/>
      <point x="735" y="1077" type="qcurve" smooth="yes"/>
      <point x="735" y="1172"/>
      <point x="652" y="1274"/>
      <point x="573" y="1274" type="qcurve" smooth="yes"/>
      <point x="494" y="1274"/>
      <point x="410" y="1178"/>
      <point x="410" y="1085" type="qcurve" smooth="yes"/>
      <point x="410" y="1080"/>
      <point x="412" y="1060"/>
      <point x="412" y="1055" type="qcurve"/>
      <point x="129" y="1055" type="line"/>
      <point x="129" y="1087" type="line" smooth="yes"/>
      <point x="129" y="1273"/>
      <point x="382" y="1497"/>
      <point x="590" y="1497" type="qcurve" smooth="yes"/>
      <point x="793" y="1497"/>
      <point x="1028" y="1267"/>
      <point x="1028" y="1067" type="qcurve" smooth="yes"/>
      <point x="1028" y="913"/>
      <point x="864" y="719"/>
      <point x="707" y="686" type="qcurve"/>
    </contour>
  </outline>
</glyph>
<glyph name="L" format="2">
  <advance width="1010"/>
  <unicode hex="004C"/>
  <outline>
    <contour>
      <point x="164" y="0" type="line"/>
      <point x="164" y="1464" type="line"/>
      <point x="477" y="1464" type="line"/>
      <point x="477" y="266" type="line"/>
      <point x="977" y="266" type="line"/>
      <point x="977" y="0" type="line"/>
    </contour>
  </outline>
</glyph>
<glyph name="O" format="2">
  <advance width="1763"/>
  <unicode hex="004F"/>
  <outline>
    <contour>
      <point x="1663" y="729" type="qcurve" smooth="yes"/>
      <point x="1663" y="572"/>
      <point x="1546" y="292"/>
      <point x="1436" y="186" type="qcurve" smooth="yes"/>
      <point x="1322" y="77"/>
      <point x="1036" y="-39"/>
      <point x="883" y="-39" type="qcurve" smooth="yes"/>
      <point x="749" y="-39"/>
      <point x="492" y="52"/>
      <point x="385" y="137" type="qcurve" smooth="yes"/>
      <point x="247" y="247"/>
      <point x="100" y="553"/>
      <point x="100" y="729" type="qcurve" smooth="yes"/>
      <point x="100" y="887"/>
      <point x="216" y="1164"/>
      <point x="328" y="1272" type="qcurve" smooth="yes"/>
      <point x="438" y="1379"/>
      <point x="729" y="1497"/>
      <point x="883" y="1497" type="qcurve" smooth="yes"/>
      <point x="1036" y="1497"/>
      <point x="1325" y="1379"/>
      <point x="1436" y="1272" type="qcurve" smooth="yes"/>
      <point x="1547" y="1164"/>
      <point x="1663" y="886"/>
    </contour>
    <contour>
      <point x="883" y="240" type="qcurve" smooth="yes"/>
      <point x="1082" y="240"/>
      <point x="1341" y="519"/>
      <point x="1341" y="729" type="qcurve" smooth="yes"/>
      <point x="1341" y="937"/>
      <point x="1079" y="1221"/>
      <point x="883" y="1221" type="qcurve" smooth="yes"/>
      <point x="684" y="1221"/>
      <point x="422" y="938"/>
      <point x="422" y="729" type="qcurve" smooth="yes"/>
      <point x="422" y="517"/>
      <point x="680" y="240"/>
    </contour>
  </outline>
</glyph>
<glyph name="P" format="2">
  <advance width="1139"/>
  <unicode hex="0050"/>
  <outline>
    <contour>
      <point x="479" y="803" type="line"/>
      <point x="524" y="803" type="line" smooth="yes"/>
      <point x="652" y="803"/>
      <point x="768" y="909"/>
      <point x="768" y="1026" type="qcurve" smooth="yes"/>
      <point x="768" y="1134"/>
      <point x="652" y="1233"/>
      <point x="524" y="1233" type="qcurve" smooth="yes"/>
      <point x="479" y="1233" type="line"/>
    </contour>
    <contour>
      <point x="164" y="0" type="line"/>
      <point x="164" y="1464" type="line"/>
      <point x="524" y="1464" type="line" smooth="yes"/>
      <point x="812" y="1464"/>
      <point x="1087" y="1244"/>
      <point x="1087" y="1014" type="qcurve" smooth="yes"/>
      <point x="1087" y="801"/>
      <point x="810" y="559"/>
      <point x="565" y="559" type="qcurve" smooth="yes"/>
      <point x="479" y="559" type="line"/>
      <point x="479" y="0" type="line"/>
    </contour>
  </outline>
</glyph>
<glyph name="Q" format="2">
  <advance width="1763"/>
  <unicode hex="0051"/>
  <outline>
    <contour>
      <point x="1092" y="496" type="line"/>
      <point x="1200" y="369" type="line"/>
      <point x="1268" y="439"/>
      <point x="1341" y="628"/>
      <point x="1341" y="729" type="qcurve" smooth="yes"/>
      <point x="1341" y="937"/>
      <point x="1079" y="1221"/>
      <point x="883" y="1221" type="qcurve" smooth="yes"/>
      <point x="684" y="1221"/>
      <point x="422" y="938"/>
      <point x="422" y="729" type="qcurve" smooth="yes"/>
      <point x="422" y="518"/>
      <point x="679" y="240"/>
      <point x="877" y="240" type="qcurve" smooth="yes"/>
      <point x="894" y="240"/>
      <point x="955" y="247"/>
      <point x="997" y="254" type="qcurve"/>
      <point x="786" y="496" type="line"/>
    </contour>
    <contour>
      <point x="1655" y="-170" type="line"/>
      <point x="1343" y="-170" type="line"/>
      <point x="1184" y="18" type="line"/>
      <point x="1076" y="-10"/>
      <point x="933" y="-35"/>
      <point x="877" y="-35" type="qcurve" smooth="yes"/>
      <point x="726" y="-35"/>
      <point x="436" y="83"/>
      <point x="328" y="188" type="qcurve" smooth="yes"/>
      <point x="217" y="296"/>
      <point x="98" y="577"/>
      <point x="98" y="731" type="qcurve" smooth="yes"/>
      <point x="98" y="885"/>
      <point x="216" y="1164"/>
      <point x="328" y="1274" type="qcurve" smooth="yes"/>
      <point x="437" y="1382"/>
      <point x="724" y="1497"/>
      <point x="883" y="1497" type="qcurve" smooth="yes"/>
      <point x="1039" y="1497"/>
      <point x="1325" y="1382"/>
      <point x="1436" y="1274" type="qcurve" smooth="yes"/>
      <point x="1547" y="1165"/>
      <point x="1665" y="887"/>
      <point x="1665" y="731" type="qcurve" smooth="yes"/>
      <point x="1665" y="559"/>
      <point x="1523" y="261"/>
      <point x="1386" y="145" type="qcurve"/>
    </contour>
  </outline>
</glyph>
<glyph name="T" format="2">
  <advance width="1110"/>
  <unicode hex="0054"/>
  <outline>
    <contour>
      <point x="711" y="1198" type="line"/>
      <point x="711" y="0" type="line"/>
      <point x="397" y="0" type="line"/>
      <point x="397" y="1198" type="line"/>
      <point x="39" y="1198" type="line"/>
      <point x="39" y="1464" type="line"/>
      <point x="1071" y="1464" type="line"/>
      <point x="1071" y="1198" type="line"/>
    </contour>
  </outline>
</glyph>
<glyph name="Y" format="2">
  <advance width="1241"/>
  <unicode hex="0059"/>
  <outline>
    <contour>
      <point x="465" y="0" type="line"/>
      <point x="465" y="668" type="line"/>
      <point x="-31" y="1464" type="line"/>
      <point x="336" y="1464" type="line"/>
      <point x="553" y="1063" type="line" smooth="yes"/>
      <point x="569" y="1033"/>
      <point x="603" y="941"/>
      <point x="621" y="881" type="qcurve"/>
      <point x="635" y="932"/>
      <point x="670" y="1022"/>
      <point x="692" y="1065" type="qcurve" smooth="yes"/>
      <point x="907" y="1464" type="line"/>
      <point x="1272" y="1464" type="line"/>
      <point x="778" y="668" type="line"/>
      <point x="778" y="0" type="line"/>
    </contour>
  </outline>
</glyph>
<glyph name="bracketleft" format="2">
  <advance width="688"/>
  <unicode hex="005B"/>
  <outline>
    <contour>
      <point x="182" y="1497" type="line"/>
      <point x="633" y="1497" type="line"/>
      <point x="633" y="1266" type="line"/>
      <point x="434" y="1266" type="line"/>
      <point x="434" y="-217" type="line"/>
      <point x="633" y="-217" type="line"/>
      <point x="633" y="-451" type="line"/>
      <point x="182" y="-451" type="line"/>
    </contour>
  </outline>
</glyph>
<glyph name="backslash" format="2">
  <advance width="930"/>
  <unicode hex="005C"/>
  <outline>
    <contour>
      <point x="717" y="-190" type="line"/>
      <point x="0" y="1497" type="line"/>
      <point x="213" y="1497" type="line"/>
      <point x="930" y="-190" type="line"/>
    </contour>
  </outline>
</glyph>
<glyph name="g" format="2">
  <advance width="1262"/>
  <unicode hex="0067"/>
  <outline>
    <contour>
      <point x="1120" y="16" type="line" smooth="yes"/>
      <point x="1120" y="-139"/>
      <point x="1083" y="-265"/>
      <point x="1038" y="-311" type="qcurve" smooth="yes"/>
      <point x="974" y="-380"/>
      <point x="774" y="-446"/>
      <point x="631" y="-446" type="qcurve" smooth="yes"/>
      <point x="392" y="-446"/>
      <point x="144" y="-294"/>
      <point x="133" y="-139" type="qcurve"/>
      <point x="446" y="-139" type="line"/>
      <point x="453" y="-196"/>
      <point x="543" y="-250"/>
      <point x="631" y="-250" type="qcurve" smooth="yes"/>
      <point x="747" y="-250"/>
      <point x="850" y="-130"/>
      <point x="850" y="10" type="qcurve" smooth="yes"/>
      <point x="850" y="150" type="line"/>
      <point x="793" y="59"/>
      <point x="632" y="-29"/>
      <point x="522" y="-29" type="qcurve" smooth="yes"/>
      <point x="320" y="-29"/>
      <point x="78" y="254"/>
      <point x="78" y="494" type="qcurve" smooth="yes"/>
      <point x="78" y="738"/>
      <point x="314" y="1014"/>
      <point x="522" y="1014" type="qcurve" smooth="yes"/>
      <point x="629" y="1014"/>
      <point x="796" y="915"/>
      <point x="852" y="819" type="qcurve"/>
      <point x="852" y="981" type="line"/>
      <point x="1120" y="981" type="line"/>
    </contour>
    <contour>
      <point x="862" y="492" type="qcurve" smooth="yes"/>
      <point x="862" y="622"/>
      <point x="730" y="772"/>
      <point x="616" y="772" type="qcurve" smooth="yes"/>
      <point x="499" y="772"/>
      <point x="367" y="623"/>
      <point x="367" y="492" type="qcurve" smooth="yes"/>
      <point x="367" y="361"/>
      <point x="497" y="215"/>
      <point x="614" y="215" type="qcurve" smooth="yes"/>
      <point x="731" y="215"/>
      <point x="862" y="361"/>
    </contour>
  </outline>
</glyph>
<glyph name="i" format="2">
  <advance width="584"/>
  <unicode hex="0069"/>
  <outline>
    <contour>
      <point x="125" y="1384" type="qcurve" smooth="yes"/>
      <point x="125" y="1452"/>
      <point x="223" y="1550"/>
      <point x="291" y="1550" type="qcurve" smooth="yes"/>
      <point x="360" y="1550"/>
      <point x="459" y="1453"/>
      <point x="459" y="1384" type="qcurve" smooth="yes"/>
      <point x="459" y="1315"/>
      <point x="360" y="1217"/>
      <point x="291" y="1217" type="qcurve" smooth="yes"/>
      <point x="223" y="1217"/>
      <point x="125" y="1317"/>
    </contour>
    <contour>
      <point x="150" y="0" type="line"/>
      <point x="150" y="981" type="line"/>
      <point x="434" y="981" type="line"/>
      <point x="434" y="0" type="line"/>
    </contour>
  </outline>
</glyph>
<glyph name="j" format="2">
  <advance width="584"/>
  <unicode hex="006A"/>
  <outline>
    <contour>
      <point x="125" y="1384" type="qcurve" smooth="yes"/>
      <point x="125" y="1452"/>
      <point x="223" y="1550"/>
      <point x="291" y="1550" type="qcurve" smooth="yes"/>
      <point x="360" y="1550"/>
      <point x="459" y="1453"/>
      <point x="459" y="1384" type="qcurve" smooth="yes"/>
      <point x="459" y="1315"/>
      <point x="360" y="1217"/>
      <point x="291" y="1217" type="qcurve" smooth="yes"/>
      <point x="223" y="1217"/>
      <point x="125" y="1317"/>
    </contour>
    <contour>
      <point x="150" y="-446" type="line"/>
      <point x="150" y="981" type="line"/>
      <point x="434" y="981" type="line"/>
      <point x="434" y="-446" type="line"/>
    </contour>
  </outline>
</glyph>
<glyph name="l" format="2">
  <advance width="584"/>
  <unicode hex="006C"/>
  <outline>
    <contour>
      <point x="150" y="0" type="line"/>
      <point x="150" y="1550" type="line"/>
      <point x="434" y="1550" type="line"/>
      <point x="434" y="0" type="line"/>
    </contour>
  </outline>
</glyph>
<glyph name="p" format="2">
  <advance width="1262"/>
  <unicode hex="0070"/>
  <outline>
    <contour>
      <point x="399" y="492" type="qcurve" smooth="yes"/>
      <point x="399" y="359"/>
      <point x="530" y="211"/>
      <point x="647" y="211" type="qcurve" smooth="yes"/>
      <point x="764" y="211"/>
      <point x="895" y="359"/>
      <point x="895" y="492" type="qcurve" smooth="yes"/>
      <point x="895" y="625"/>
      <point x="762" y="778"/>
      <point x="645" y="778" type="qcurve" smooth="yes"/>
      <point x="532" y="778"/>
      <point x="399" y="624"/>
    </contour>
    <contour>
      <point x="139" y="-446" type="line"/>
      <point x="139" y="981" type="line"/>
      <point x="412" y="981" type="line"/>
      <point x="412" y="819" type="line"/>
      <point x="468" y="917"/>
      <point x="631" y="1014"/>
      <point x="739" y="1014" type="qcurve" smooth="yes"/>
      <point x="948" y="1014"/>
      <point x="1184" y="737"/>
      <point x="1184" y="489" type="qcurve" smooth="yes"/>
      <point x="1184" y="250"/>
      <point x="946" y="-39"/>
      <point x="752" y="-39" type="qcurve" smooth="yes"/>
      <point x="635" y="-39"/>
      <point x="472" y="48"/>
      <point x="414" y="141" type="qcurve"/>
      <point x="419" y="104"/>
      <point x="424" y="17"/>
      <point x="424" y="-39" type="qcurve" smooth="yes"/>
      <point x="424" y="-446" type="line"/>
    </contour>
  </outline>
</glyph>
<glyph name="s" format="2">
  <advance width="934"/>
  <unicode hex="0073"/>
  <outline>
    <contour>
      <point x="43" y="172" type="qcurve"/>
      <point x="262" y="285" type="line"/>
      <point x="273" y="228"/>
      <point x="369" y="162"/>
      <point x="440" y="162" type="qcurve" smooth="yes"/>
      <point x="510" y="162"/>
      <point x="590" y="213"/>
      <point x="590" y="258" type="qcurve" smooth="yes"/>
      <point x="590" y="329"/>
      <point x="448" y="377" type="qcurve" smooth="yes"/>
      <point x="404" y="392"/>
      <point x="378" y="402" type="qcurve" smooth="yes"/>
      <point x="205" y="467"/>
      <point x="72" y="599"/>
      <point x="72" y="696" type="qcurve" smooth="yes"/>
      <point x="72" y="840"/>
      <point x="298" y="1018"/>
      <point x="483" y="1018" type="qcurve" smooth="yes"/>
      <point x="615" y="1018"/>
      <point x="808" y="912"/>
      <point x="852" y="815" type="qcurve"/>
      <point x="643" y="711" type="line"/>
      <point x="626" y="766"/>
      <point x="542" y="823"/>
      <point x="479" y="823" type="qcurve" smooth="yes"/>
      <point x="416" y="823"/>
      <point x="338" y="771"/>
      <point x="338" y="729" type="qcurve" smooth="yes"/>
      <point x="338" y="656"/>
      <point x="532" y="593" type="qcurve" smooth="yes"/>
      <point x="555" y="586"/>
      <point x="567" y="582" type="qcurve" smooth="yes"/>
      <point x="728" y="529"/>
      <point x="864" y="388"/>
      <point x="864" y="279" type="qcurve" smooth="yes"/>
      <point x="864" y="133"/>
      <point x="638" y="-39"/>
      <point x="446" y="-39" type="qcurve" smooth="yes"/>
      <point x="294" y="-39"/>
      <point x="79" y="74"/>
    </contour>
  </outline>
</glyph>
<glyph name="t" format="2">
  <advance width="633"/>
  <unicode hex="0074"/>
  <outline>
    <contour>
      <point x="174" y="0" type="line"/>
      <point x="174" y="758" type="line"/>
      <point x="37" y="758" type="line"/>
      <point x="37" y="981" type="line"/>
      <point x="174" y="981" type="line"/>
      <point x="174" y="1307" type="line"/>
      <point x="459" y="1307" type="line"/>
      <point x="459" y="981" type="line"/>
      <point x="596" y="981" type="line"/>
      <point x="596" y="758" type="line"/>
      <point x="459" y="758" type="line"/>
      <point x="459" y="0" type="line"/>
    </contour>
  </outline>
</glyph>
<glyph name="u" format="2">
  <advance width="1268"/>
  <unicode hex="0075"/>
  <outline>
    <contour>
      <point x="418" y="981" type="line"/>
      <point x="418" y="465" type="line" smooth="yes"/>
      <point x="418" y="335"/>
      <point x="519" y="223"/>
      <point x="633" y="223" type="qcurve" smooth="yes"/>
      <point x="746" y="223"/>
      <point x="848" y="336"/>
      <point x="848" y="465" type="qcurve" smooth="yes"/>
      <point x="848" y="981" type="line"/>
      <point x="1133" y="981" type="line"/>
      <point x="1133" y="465" type="line" smooth="yes"/>
      <point x="1133" y="206"/>
      <point x="891" y="-39"/>
      <point x="637" y="-39" type="qcurve" smooth="yes"/>
      <point x="378" y="-39"/>
      <point x="135" y="205"/>
      <point x="135" y="465" type="qcurve" smooth="yes"/>
      <point x="135" y="981" type="line"/>
    </contour>
  </outline>
</glyph>
<glyph name="w" format="2">
  <advance width="1673"/>
  <unicode hex="0077"/>
  <outline>
    <contour>
      <point x="991" y="981" type="line"/>
      <point x="1133" y="473" type="line" smooth="yes"/>
      <point x="1137" y="458"/>
      <point x="1150" y="382"/>
      <point x="1167" y="264" type="qcurve"/>
      <point x="1176" y="310"/>
      <point x="1203" y="412"/>
      <point x="1223" y="475" type="qcurve" smooth="yes"/>
      <point x="1376" y="981" type="line"/>
      <point x="1686" y="981" type="line"/>
      <point x="1346" y="0" type="line"/>
      <point x="1042" y="0" type="line"/>
      <point x="895" y="508" type="line" smooth="yes"/>
      <point x="891" y="522"/>
      <point x="882" y="553" type="qcurve" smooth="yes"/>
      <point x="849" y="668"/>
      <point x="834" y="741" type="qcurve"/>
      <point x="821" y="673"/>
      <point x="796" y="561"/>
      <point x="782" y="512" type="qcurve" smooth="yes"/>
      <point x="631" y="0" type="line"/>
      <point x="328" y="0" type="line"/>
      <point x="-12" y="981" type="line"/>
      <point x="299" y="981" type="line"/>
      <point x="449" y="494" type="line" smooth="yes"/>
      <point x="469" y="428"/>
      <point x="495" y="321"/>
      <point x="504" y="265" type="qcurve"/>
      <point x="512" y="326"/>
      <point x="534" y="439"/>
      <point x="549" y="492" type="qcurve" smooth="yes"/>
      <point x="680" y="981" type="line"/>
    </contour>
  </outline>
</glyph>
<glyph name="x" format="2">
  <advance width="1020"/>
  <unicode hex="0078"/>
  <outline>
    <contour>
      <point x="319" y="0" type="line"/>
      <point x="-18" y="0" type="line"/>
      <point x="330" y="498" type="line"/>
      <point x="0" y="981" type="line"/>
      <point x="356" y="981" type="line"/>
      <point x="453" y="799" type="line" smooth="yes"/>
      <point x="471" y="764"/>
      <point x="500" y="690"/>
      <point x="512" y="649" type="qcurve"/>
      <point x="523" y="687"/>
      <point x="555" y="762"/>
      <point x="578" y="801" type="qcurve" smooth="yes"/>
      <point x="682" y="981" type="line"/>
      <point x="1020" y="981" type="line"/>
      <point x="684" y="504" type="line"/>
      <point x="1038" y="0" type="line"/>
      <point x="684" y="0" type="line"/>
      <point x="569" y="201" type="line" smooth="yes"/>
      <point x="549" y="239"/>
      <point x="518" y="314"/>
      <point x="508" y="352" type="qcurve"/>
      <point x="498" y="313"/>
      <point x="466" y="240"/>
      <point x="440" y="199" type="qcurve" smooth="yes"/>
    </contour>
  </outline>
</glyph>
<glyph name="braceright" format="2">
  <advance width="1024"/>
  <unicode hex="007D"/>
  <outline>
    <contour>
      <point x="143" y="1477" type="line"/>
      <point x="211" y="1477" type="line" smooth="yes"/>
      <point x="321" y="1477"/>
      <point x="455" y="1453"/>
      <point x="500" y="1427" type="qcurve" smooth="yes"/>
      <point x="557" y="1395"/>
      <point x="604" y="1276"/>
      <point x="604" y="1137" type="qcurve" smooth="yes"/>
      <point x="604" y="885" type="line" smooth="yes"/>
      <point x="604" y="748"/>
      <point x="706" y="633"/>
      <point x="827" y="633" type="qcurve" smooth="yes"/>
      <point x="833" y="633"/>
      <point x="861" y="635"/>
      <point x="868" y="635" type="qcurve"/>
      <point x="868" y="426" type="line"/>
      <point x="831" y="426" type="line" smooth="yes"/>
      <point x="706" y="426"/>
      <point x="604" y="314"/>
      <point x="604" y="176" type="qcurve" smooth="yes"/>
      <point x="604" y="-76" type="line" smooth="yes"/>
      <point x="604" y="-219"/>
      <point x="557" y="-335"/>
      <point x="500" y="-367" type="qcurve" smooth="yes"/>
      <point x="453" y="-392"/>
      <point x="319" y="-416"/>
      <point x="219" y="-416" type="qcurve" smooth="yes"/>
      <point x="207" y="-416"/>
      <point x="157" y="-414"/>
      <point x="143" y="-414" type="qcurve"/>
      <point x="143" y="-205" type="line"/>
      <point x="152" y="-205"/>
      <point x="184" y="-207"/>
      <point x="190" y="-207" type="qcurve" smooth="yes"/>
      <point x="291" y="-207"/>
      <point x="362" y="-130"/>
      <point x="362" y="-8" type="qcurve" smooth="yes"/>
      <point x="362" y="231" type="line" smooth="yes"/>
      <point x="362" y="381"/>
      <point x="452" y="504"/>
      <point x="569" y="530" type="qcurve"/>
      <point x="452" y="557"/>
      <point x="362" y="681"/>
      <point x="362" y="829" type="qcurve" smooth="yes"/>
      <point x="362" y="1071" type="line" smooth="yes"/>
      <point x="362" y="1193"/>
      <point x="291" y="1270"/>
      <point x="190" y="1270" type="qcurve" smooth="yes"/>
      <point x="184" y="1270"/>
      <point x="152" y="1268"/>
      <point x="143" y="1268" type="qcurve"/>
    </contour>
  </outline>
</glyph>
<glyph name="asciitilde" format="2">
  <advance width="1706"/>
  <unicode hex="007E"/>
  <outline>
    <contour>
      <point x="1530" y="803" type="qcurve"/>
      <point x="1530" y="582" type="line"/>
      <point x="1426" y="511"/>
      <point x="1241" y="444"/>
      <point x="1151" y="444" type="qcurve" smooth="yes"/>
      <point x="1105" y="444"/>
      <point x="1013" y="460"/>
      <point x="967" y="475" type="qcurve" smooth="yes"/>
      <point x="943" y="483"/>
      <point x="896" y="500" type="qcurve" smooth="yes"/>
      <point x="677" y="575"/>
      <point x="563" y="575" type="qcurve" smooth="yes"/>
      <point x="478" y="575"/>
      <point x="293" y="500"/>
      <point x="178" y="418" type="qcurve"/>
      <point x="178" y="639" type="line"/>
      <point x="285" y="711"/>
      <point x="479" y="782"/>
      <point x="565" y="782" type="qcurve" smooth="yes"/>
      <point x="682" y="782"/>
      <point x="856" y="724" type="qcurve" smooth="yes"/>
      <point x="859" y="723"/>
      <point x="860" y="723" type="qcurve" smooth="yes"/>
      <point x="878" y="717"/>
      <point x="915" y="704" type="qcurve" smooth="yes"/>
      <point x="1070" y="649"/>
      <point x="1155" y="649" type="qcurve" smooth="yes"/>
      <point x="1240" y="649"/>
      <point x="1420" y="723"/>
    </contour>
  </outline>
</glyph>
<glyph name="cent" format="2">
  <advance width="1255"/>
  <unicode hex="00A2"/>
  <outline>
    <contour>
      <point x="961" y="256" type="line"/>
      <point x="912" y="230"/>
      <point x="805" y="197"/>
      <point x="745" y="190" type="qcurve"/>
      <point x="745" y="-12" type="line"/>
      <point x="633" y="-12" type="line"/>
      <point x="633" y="190" type="line"/>
      <point x="410" y="229"/>
      <point x="174" y="509"/>
      <point x="174" y="733" type="qcurve" smooth="yes"/>
      <point x="174" y="933"/>
      <point x="423" y="1209"/>
      <point x="633" y="1241" type="qcurve"/>
      <point x="633" y="1407" type="line"/>
      <point x="745" y="1407" type="line"/>
      <point x="745" y="1243" type="line"/>
      <point x="801" y="1237"/>
      <point x="907" y="1207"/>
      <point x="961" y="1182" type="qcurve"/>
      <point x="958" y="895" type="line"/>
      <point x="914" y="941"/>
      <point x="797" y="989"/>
      <point x="729" y="989" type="qcurve" smooth="yes"/>
      <point x="609" y="989"/>
      <point x="465" y="844"/>
      <point x="465" y="723" type="qcurve" smooth="yes"/>
      <point x="465" y="599"/>
      <point x="612" y="453"/>
      <point x="737" y="453" type="qcurve" smooth="yes"/>
      <point x="807" y="453"/>
      <point x="914" y="501"/>
      <point x="958" y="553" type="qcurve"/>
    </contour>
  </outline>
</glyph>
<glyph name="currency" format="2">
  <advance width="1241"/>
  <unicode hex="00A4"/>
  <outline>
    <contour>
      <point x="623" y="1161" type="qcurve" smooth="yes"/>
      <point x="510" y="1161"/>
      <point x="346" y="997"/>
      <point x="346" y="885" type="qcurve" smooth="yes"/>
      <point x="346" y="771"/>
      <point x="508" y="610"/>
      <point x="623" y="610" type="qcurve" smooth="yes"/>
      <point x="736" y="610"/>
      <point x="899" y="771"/>
      <point x="899" y="885" type="qcurve" smooth="yes"/>
      <point x="899" y="997"/>
      <point x="736" y="1161"/>
    </contour>
    <contour>
      <point x="172" y="1438" type="line"/>
      <point x="377" y="1235" type="line"/>
      <point x="431" y="1274"/>
      <point x="551" y="1313"/>
      <point x="621" y="1313" type="qcurve" smooth="yes"/>
      <point x="691" y="1313"/>
      <point x="814" y="1274"/>
      <point x="868" y="1235" type="qcurve"/>
      <point x="1071" y="1438" type="line"/>
      <point x="1176" y="1331" type="line"/>
      <point x="973" y="1126" type="line"/>
      <point x="1011" y="1073"/>
      <point x="1049" y="952"/>
      <point x="1049" y="885" type="qcurve" smooth="yes"/>
      <point x="1049" y="818"/>
      <point x="1011" y="698"/>
      <point x="973" y="643" type="qcurve"/>
      <point x="1176" y="438" type="line"/>
      <point x="1071" y="334" type="line"/>
      <point x="868" y="537" type="line"/>
      <point x="814" y="497"/>
      <point x="692" y="459"/>
      <point x="623" y="459" type="qcurve" smooth="yes"/>
      <point x="551" y="459"/>
      <point x="430" y="497"/>
      <point x="377" y="537" type="qcurve"/>
      <point x="172" y="334" type="line"/>
      <point x="68" y="438" type="line"/>
      <point x="270" y="643" type="line"/>
      <point x="232" y="697"/>
      <point x="195" y="816"/>
      <point x="195" y="885" type="qcurve" smooth="yes"/>
      <point x="195" y="952"/>
      <point x="232" y="1073"/>
      <point x="270" y="1126" type="qcurve"/>
      <point x="68" y="1331" type="line"/>
    </contour>
  </outline>
</glyph>
<glyph name="yen" format="2">
  <advance width="1255"/>
  <unicode hex="00A5"/>
  <outline>
    <contour>
      <point x="489" y="0" type="line"/>
      <point x="489" y="537" type="line"/>
      <point x="14" y="537" type="line"/>
      <point x="14" y="705" type="line"/>
      <point x="461" y="705" type="line"/>
      <point x="362" y="864" type="line"/>
      <point x="14" y="864" type="line"/>
      <point x="14" y="1032" type="line"/>
      <point x="258" y="1032" type="line"/>
      <point x="-6" y="1452" type="line"/>
      <point x="326" y="1452" type="line"/>
      <point x="553" y="1053" type="line" smooth="yes"/>
      <point x="573" y="1016"/>
      <point x="613" y="920"/>
      <point x="631" y="864" type="qcurve"/>
      <point x="647" y="919"/>
      <point x="685" y="1012"/>
      <point x="709" y="1053" type="qcurve" smooth="yes"/>
      <point x="938" y="1452" type="line"/>
      <point x="1268" y="1452" type="line"/>
      <point x="1006" y="1032" type="line"/>
      <point x="1237" y="1032" type="line"/>
      <point x="1237" y="864" type="line"/>
      <point x="899" y="864" type="line"/>
      <point x="801" y="705" type="line"/>
      <point x="1237" y="705" type="line"/>
      <point x="1237" y="537" type="line"/>
      <point x="774" y="537" type="line"/>
      <point x="774" y="0" type="line"/>
    </contour>
  </outline>
</glyph>
<glyph name="dieresis" format="2">
  <advance width="1024"/>
  <unicode hex="00A8"/>
  <outline>
    <contour>
      <point x="569" y="1309" type="qcurve" smooth="yes"/>
      <point x="569" y="1360"/>
      <point x="648" y="1438"/>
      <point x="700" y="1438" type="qcurve" smooth="yes"/>
      <point x="754" y="1438"/>
      <point x="829" y="1362"/>
      <point x="829" y="1309" type="qcurve" smooth="yes"/>
      <point x="829" y="1252"/>
      <point x="756" y="1178"/>
      <point x="700" y="1178" type="qcurve" smooth="yes"/>
      <point x="645" y="1178"/>
      <point x="569" y="1253"/>
    </contour>
    <contour>
      <point x="195" y="1309" type="qcurve" smooth="yes"/>
      <point x="195" y="1360"/>
      <point x="274" y="1438"/>
      <point x="326" y="1438" type="qcurve" smooth="yes"/>
      <point x="379" y="1438"/>
      <point x="455" y="1362"/>
      <point x="455" y="1309" type="qcurve" smooth="yes"/>
      <point x="455" y="1252"/>
      <point x="381" y="1178"/>
      <point x="326" y="1178" type="qcurve" smooth="yes"/>
      <point x="270" y="1178"/>
      <point x="195" y="1253"/>
    </contour>
  </outline>
</glyph>
<glyph name="ordfeminine" format="2">
  <advance width="938"/>
  <unicode hex="00AA"/>
  <outline>
    <contour>
      <point x="109" y="610" type="line"/>
      <point x="793" y="610" type="line"/>
      <point x="793" y="487" type="line"/>
      <point x="109" y="487" type="line"/>
    </contour>
    <contour>
      <point x="463" y="1325" type="qcurve" smooth="yes"/>
      <point x="379" y="1325"/>
      <point x="285" y="1219"/>
      <point x="285" y="1126" type="qcurve" smooth="yes"/>
      <point x="285" y="1033"/>
      <point x="378" y="928"/>
      <point x="461" y="928" type="qcurve" smooth="yes"/>
      <point x="544" y="928"/>
      <point x="637" y="1031"/>
      <point x="637" y="1124" type="qcurve" smooth="yes"/>
      <point x="637" y="1216"/>
      <point x="543" y="1325"/>
    </contour>
    <contour>
      <point x="629" y="1374" type="qcurve"/>
      <point x="629" y="1475" type="line"/>
      <point x="852" y="1475" type="line"/>
      <point x="852" y="772" type="line"/>
      <point x="625" y="772" type="line"/>
      <point x="627" y="858" type="line"/>
      <point x="597" y="804"/>
      <point x="472" y="745"/>
      <point x="385" y="745" type="qcurve" smooth="yes"/>
      <point x="233" y="745"/>
      <point x="49" y="951"/>
      <point x="49" y="1122" type="qcurve" smooth="yes"/>
      <point x="49" y="1298"/>
      <point x="231" y="1497"/>
      <point x="391" y="1497" type="qcurve" smooth="yes"/>
      <point x="474" y="1497"/>
      <point x="594" y="1435"/>
    </contour>
  </outline>
</glyph>
<glyph name="guillemotleft" format="2">
  <advance width="1059"/>
  <unicode hex="00AB"/>
  <outline>
    <contour>
      <point x="573" y="836" type="line"/>
      <point x="297" y="485" type="line"/>
      <point x="567" y="139" type="line"/>
      <point x="418" y="33" type="line"/>
      <point x="63" y="487" type="line"/>
      <point x="420" y="942" type="line"/>
    </contour>
    <contour>
      <point x="995" y="836" type="line"/>
      <point x="717" y="485" type="line"/>
      <point x="987" y="139" type="line"/>
      <point x="838" y="33" type="line"/>
      <point x="485" y="487" type="line"/>
      <point x="842" y="942" type="line"/>
    </contour>
  </outline>
</glyph>
<glyph name="sfthyphen" format="2">
  <advance width="854"/>
  <unicode hex="00AD"/>
  <outline>
    <contour>
      <point x="147" y="362" type="line"/>
      <point x="147" y="614" type="line"/>
      <point x="707" y="614" type="line"/>
      <point x="707" y="362" type="line"/>
    </contour>
  </outline>
</glyph>
<glyph name="registered" format="2">
  <advance width="1706"/>
  <unicode hex="00AE"/>
  <outline>
    <contour>
      <point x="745" y="1034" type="line"/>
      <point x="745" y="795" type="line"/>
      <point x="844" y="795" type="line" smooth="yes"/>
      <point x="932" y="795"/>
      <point x="1014" y="851"/>
      <point x="1014" y="911" type="qcurve" smooth="yes"/>
      <point x="1014" y="974"/>
      <point x="926" y="1034"/>
      <point x="834" y="1034" type="qcurve" smooth="yes"/>
    </contour>
    <contour>
      <point x="545" y="1161" type="line"/>
      <point x="868" y="1161" type="line" smooth="yes"/>
      <point x="1044" y="1161"/>
      <point x="1221" y="1042"/>
      <point x="1221" y="924" type="qcurve" smooth="yes"/>
      <point x="1221" y="842"/>
      <point x="1125" y="726"/>
      <point x="1040" y="705" type="qcurve"/>
      <point x="1225" y="336" type="line"/>
      <point x="1001" y="336" type="line"/>
      <point x="844" y="674" type="line"/>
      <point x="745" y="674" type="line"/>
      <point x="745" y="336" type="line"/>
      <point x="545" y="336" type="line"/>
    </contour>
    <contour>
      <point x="854" y="1356" type="qcurve" smooth="yes"/>
      <point x="727" y="1356"/>
      <point x="509" y="1267"/>
      <point x="422" y="1180" type="qcurve" smooth="yes"/>
      <point x="331" y="1089"/>
      <point x="233" y="858"/>
      <point x="233" y="735" type="qcurve" smooth="yes"/>
      <point x="233" y="611"/>
      <point x="325" y="388"/>
      <point x="412" y="301" type="qcurve" smooth="yes"/>
      <point x="501" y="210"/>
      <point x="729" y="113"/>
      <point x="852" y="113" type="qcurve" smooth="yes"/>
      <point x="972" y="113"/>
      <point x="1199" y="207"/>
      <point x="1292" y="295" type="qcurve" smooth="yes"/>
      <point x="1379" y="379"/>
      <point x="1475" y="603"/>
      <point x="1475" y="723" type="qcurve" smooth="yes"/>
      <point x="1475" y="856"/>
      <point x="1386" y="1080"/>
      <point x="1298" y="1169" type="qcurve" smooth="yes"/>
      <point x="1208" y="1262"/>
      <point x="983" y="1356"/>
    </contour>
    <contour>
      <point x="852" y="1479" type="qcurve" smooth="yes"/>
      <point x="1006" y="1479"/>
      <point x="1279" y="1364"/>
      <point x="1386" y="1255" type="qcurve" smooth="yes"/>
      <point x="1489" y="1151"/>
      <point x="1597" y="883"/>
      <point x="1597" y="733" type="qcurve" smooth="yes"/>
      <point x="1597" y="581"/>
      <point x="1485" y="310"/>
      <point x="1378" y="207" type="qcurve" smooth="yes"/>
      <point x="1271" y="102"/>
      <point x="998" y="-10"/>
      <point x="852" y="-10" type="qcurve" smooth="yes"/>
      <point x="703" y="-10"/>
      <point x="431" y="106"/>
      <point x="324" y="215" type="qcurve" smooth="yes"/>
      <point x="220" y="320"/>
      <point x="111" y="587"/>
      <point x="111" y="733" type="qcurve" smooth="yes"/>
      <point x="111" y="835"/>
      <point x="165" y="1028"/>
      <point x="219" y="1120" type="qcurve" smooth="yes"/>
      <point x="320" y="1290"/>
      <point x="652" y="1479"/>
    </contour>
  </outline>
</glyph>
<glyph name="macron" format="2">
  <advance width="1024"/>
  <unicode hex="00AF"/>
  <outline>
    <contour>
      <point x="225" y="1229" type="line"/>
      <point x="225" y="1384" type="line"/>
      <point x="799" y="1384" type="line"/>
      <point x="799" y="1229" type="line"/>
    </contour>
  </outline>
</glyph>
<glyph name="mu" format="2">
  <advance width="1249"/>
  <unicode hex="00B5"/>
  <outline>
    <contour>
      <point x="205" y="1092" type="line"/>
      <point x="494" y="1092" type="line"/>
      <point x="418" y="657" type="line" smooth="yes"/>
      <point x="403" y="577"/>
      <point x="387" y="434"/>
      <point x="387" y="389" type="qcurve" smooth="yes"/>
      <point x="387" y="296"/>
      <point x="471" y="205"/>
      <point x="557" y="205" type="qcurve" smooth="yes"/>
      <point x="657" y="205"/>
      <point x="768" y="369"/>
      <point x="805" y="578" type="qcurve" smooth="yes"/>
      <point x="895" y="1092" type="line"/>
      <point x="1184" y="1092" type="line"/>
      <point x="991" y="0" type="line"/>
      <point x="723" y="0" type="line"/>
      <point x="741" y="117" type="line"/>
      <point x="699" y="39"/>
      <point x="596" y="-33"/>
      <point x="526" y="-33" type="qcurve" smooth="yes"/>
      <point x="459" y="-33"/>
      <point x="355" y="26"/>
      <point x="313" y="88" type="qcurve"/>
      <point x="223" y="-438" type="line"/>
      <point x="-63" y="-438" type="line"/>
    </contour>
  </outline>
</glyph>
<glyph name="paragraph" format="2">
  <advance width="1024"/>
  <unicode hex="00B6"/>
  <outline>
    <contour>
      <point x="983" y="1479" type="line"/>
      <point x="983" y="1368" type="line"/>
      <point x="870" y="1368" type="line"/>
      <point x="870" y="0" type="line"/>
      <point x="719" y="0" type="line"/>
      <point x="719" y="1368" type="line"/>
      <point x="561" y="1368" type="line"/>
      <point x="561" y="0" type="line"/>
      <point x="408" y="0" type="line"/>
      <point x="408" y="784" type="line"/>
      <point x="241" y="790"/>
      <point x="41" y="980"/>
      <point x="41" y="1130" type="qcurve" smooth="yes"/>
      <point x="41" y="1288"/>
      <point x="255" y="1479"/>
      <point x="432" y="1479" type="qcurve" smooth="yes"/>
    </contour>
  </outline>
</glyph>
<glyph name="onequarter" format="2">
  <advance width="1925"/>
  <unicode hex="00BC"/>
  <outline>
    <contour>
      <point x="1606" y="0" type="line"/>
      <point x="1606" y="158" type="line"/>
      <point x="1161" y="158" type="line"/>
      <point x="1161" y="233" type="line"/>
      <point x="1606" y="827" type="line"/>
      <point x="1776" y="827" type="line"/>
      <point x="1776" y="274" type="line"/>
      <point x="1872" y="274" type="line"/>
      <point x="1872" y="158" type="line"/>
      <point x="1776" y="158" type="line"/>
      <point x="1776" y="0" type="line"/>
    </contour>
    <contour>
      <point x="1608" y="274" type="line"/>
      <point x="1608" y="557" type="line" smooth="yes"/>
      <point x="1608" y="598"/>
      <point x="1612" y="639"/>
      <point x="1616" y="657" type="qcurve"/>
      <point x="1598" y="620"/>
      <point x="1567" y="566"/>
      <point x="1550" y="545" type="qcurve" smooth="yes"/>
      <point x="1352" y="274" type="line"/>
    </contour>
    <contour>
      <point x="449" y="-39" type="line"/>
      <point x="1323" y="1479" type="line"/>
      <point x="1473" y="1479" type="line"/>
      <point x="598" y="-39" type="line"/>
    </contour>
    <contour>
      <point x="322" y="633" type="line"/>
      <point x="322" y="1307" type="line"/>
      <point x="137" y="1307" type="line"/>
      <point x="215" y="1444" type="line"/>
      <point x="508" y="1444" type="line"/>
      <point x="508" y="633" type="line"/>
    </contour>
  </outline>
</glyph>
<glyph name="onehalf" format="2">
  <advance width="1925"/>
  <unicode hex="00BD"/>
  <outline>
    <contour>
      <point x="1821" y="135" type="line"/>
      <point x="1821" y="0" type="line"/>
      <point x="1184" y="0" type="line"/>
      <point x="1511" y="381" type="line" smooth="yes"/>
      <point x="1582" y="465"/>
      <point x="1632" y="552"/>
      <point x="1632" y="586" type="qcurve" smooth="yes"/>
      <point x="1632" y="634"/>
      <point x="1567" y="690"/>
      <point x="1511" y="690" type="qcurve" smooth="yes"/>
      <point x="1458" y="690"/>
      <point x="1395" y="620"/>
      <point x="1395" y="561" type="qcurve" smooth="yes"/>
      <point x="1395" y="559" type="line"/>
      <point x="1208" y="559" type="line"/>
      <point x="1208" y="571" type="line" smooth="yes"/>
      <point x="1208" y="695"/>
      <point x="1366" y="827"/>
      <point x="1511" y="827" type="qcurve" smooth="yes"/>
      <point x="1658" y="827"/>
      <point x="1821" y="708"/>
      <point x="1821" y="600" type="qcurve" smooth="yes"/>
      <point x="1821" y="478"/>
      <point x="1606" y="241" type="qcurve" smooth="yes"/>
      <point x="1595" y="229" type="line"/>
      <point x="1511" y="135" type="line"/>
    </contour>
    <contour>
      <point x="449" y="-39" type="line"/>
      <point x="1323" y="1479" type="line"/>
      <point x="1473" y="1479" type="line"/>
      <point x="598" y="-39" type="line"/>
    </contour>
    <contour>
      <point x="322" y="633" type="line"/>
      <point x="322" y="1307" type="line"/>
      <point x="137" y="1307" type="line"/>
      <point x="215" y="1444" type="line"/>
      <point x="508" y="1444" type="line"/>
      <point x="508" y="633" type="line"/>
    </contour>
  </outline>
</glyph>
<glyph name="questiondown" format="2">
  <advance width="1186"/>
  <unicode hex="00BF"/>
  <outline>
    <contour>
      <point x="801" y="1327" type="qcurve" smooth="yes"/>
      <point x="801" y="1256"/>
      <point x="700" y="1157"/>
      <point x="629" y="1157" type="qcurve" smooth="yes"/>
      <point x="557" y="1157"/>
      <point x="457" y="1256"/>
      <point x="457" y="1327" type="qcurve" smooth="yes"/>
      <point x="457" y="1398"/>
      <point x="557" y="1497"/>
      <point x="629" y="1497" type="qcurve" smooth="yes"/>
      <point x="700" y="1497"/>
      <point x="801" y="1397"/>
    </contour>
    <contour>
      <point x="492" y="1032" type="line"/>
      <point x="766" y="1032" type="line"/>
      <point x="766" y="604" type="line"/>
      <point x="678" y="604" type="line" smooth="yes"/>
      <point x="575" y="604"/>
      <point x="463" y="489"/>
      <point x="463" y="383" type="qcurve" smooth="yes"/>
      <point x="463" y="288"/>
      <point x="546" y="186"/>
      <point x="625" y="186" type="qcurve" smooth="yes"/>
      <point x="705" y="186"/>
      <point x="788" y="283"/>
      <point x="788" y="375" type="qcurve" smooth="yes"/>
      <point x="788" y="380"/>
      <point x="786" y="400"/>
      <point x="786" y="406" type="qcurve"/>
      <point x="1069" y="406" type="line"/>
      <point x="1069" y="373" type="line" smooth="yes"/>
      <point x="1069" y="187"/>
      <point x="816" y="-39"/>
      <point x="608" y="-39" type="qcurve" smooth="yes"/>
      <point x="406" y="-39"/>
      <point x="170" y="193"/>
      <point x="170" y="393" type="qcurve" smooth="yes"/>
      <point x="170" y="547"/>
      <point x="334" y="742"/>
      <point x="492" y="774" type="qcurve"/>
    </contour>
  </outline>
</glyph>
<glyph name="AE" format="2">
  <advance width="2038"/>
  <unicode hex="00C6"/>
  <outline>
    <contour>
      <point x="961" y="559" type="line"/>
      <point x="797" y="1030" type="line" smooth="yes"/>
      <point x="787" y="1062"/>
      <point x="765" y="1166"/>
      <point x="756" y="1226" type="qcurve"/>
      <point x="746" y="1165"/>
      <point x="723" y="1058"/>
      <point x="713" y="1024" type="qcurve" smooth="yes"/>
      <point x="555" y="559" type="line"/>
    </contour>
    <contour>
      <point x="1135" y="0" type="line"/>
      <point x="1034" y="317" type="line"/>
      <point x="467" y="317" type="line"/>
      <point x="365" y="0" type="line"/>
      <point x="29" y="0" type="line"/>
      <point x="586" y="1464" type="line"/>
      <point x="1542" y="1464" type="line"/>
      <point x="1628" y="1200" type="line"/>
      <point x="1053" y="1200" type="line"/>
      <point x="1149" y="891" type="line"/>
      <point x="1702" y="891" type="line"/>
      <point x="1790" y="635" type="line"/>
      <point x="1237" y="635" type="line"/>
      <point x="1356" y="266" type="line"/>
      <point x="1933" y="266" type="line"/>
      <point x="2021" y="0" type="line"/>
    </contour>
  </outline>
</glyph>
<glyph name="Eth" format="2">
  <advance width="1563"/>
  <unicode hex="00D0"/>
  <outline>
    <contour>
      <point x="496" y="264" type="line"/>
      <point x="670" y="264" type="line" smooth="yes"/>
      <point x="916" y="264"/>
      <point x="1141" y="488"/>
      <point x="1141" y="731" type="qcurve" smooth="yes"/>
      <point x="1141" y="970"/>
      <point x="911" y="1198"/>
      <point x="670" y="1198" type="qcurve" smooth="yes"/>
      <point x="496" y="1198" type="line"/>
      <point x="496" y="858" type="line"/>
      <point x="819" y="858" type="line"/>
      <point x="819" y="629" type="line"/>
      <point x="496" y="629" type="line"/>
    </contour>
    <contour>
      <point x="182" y="0" type="line"/>
      <point x="182" y="629" type="line"/>
      <point x="0" y="629" type="line"/>
      <point x="0" y="858" type="line"/>
      <point x="182" y="858" type="line"/>
      <point x="182" y="1464" type="line"/>
      <point x="573" y="1464" type="line" smooth="yes"/>
      <point x="811" y="1464"/>
      <point x="1043" y="1416"/>
      <point x="1137" y="1360" type="qcurve" smooth="yes"/>
      <point x="1295" y="1265"/>
      <point x="1462" y="941"/>
      <point x="1462" y="729" type="qcurve" smooth="yes"/>
      <point x="1462" y="535"/>
      <point x="1322" y="233"/>
      <point x="1188" y="135" type="qcurve" smooth="yes"/>
      <point x="1087" y="63"/>
      <point x="843" y="0"/>
      <point x="606" y="0" type="qcurve" smooth="yes"/>
      <point x="496" y="0" type="line"/>
    </contour>
  </outline>
</glyph>
<glyph name="Oslash" format="2">
  <advance width="1763"/>
  <unicode hex="00D8"/>
  <outline>
    <contour>
      <point x="1174" y="1118" type="line"/>
      <point x="1121" y="1168"/>
      <point x="965" y="1223"/>
      <point x="877" y="1223" type="qcurve" smooth="yes"/>
      <point x="679" y="1223"/>
      <point x="422" y="936"/>
      <point x="422" y="717" type="qcurve" smooth="yes"/>
      <point x="422" y="643"/>
      <point x="461" y="510"/>
      <point x="504" y="438" type="qcurve"/>
    </contour>
    <contour>
      <point x="598" y="336" type="line"/>
      <point x="662" y="285"/>
      <point x="797" y="240"/>
      <point x="883" y="240" type="qcurve" smooth="yes"/>
      <point x="1084" y="240"/>
      <point x="1341" y="521"/>
      <point x="1341" y="739" type="qcurve" smooth="yes"/>
      <point x="1341" y="813"/>
      <point x="1301" y="945"/>
      <point x="1257" y="1014" type="qcurve"/>
    </contour>
    <contour>
      <point x="199" y="-70" type="line"/>
      <point x="98" y="23" type="line"/>
      <point x="293" y="223" type="line"/>
      <point x="192" y="341"/>
      <point x="98" y="586"/>
      <point x="98" y="731" type="qcurve" smooth="yes"/>
      <point x="98" y="886"/>
      <point x="217" y="1166"/>
      <point x="328" y="1274" type="qcurve" smooth="yes"/>
      <point x="439" y="1383"/>
      <point x="728" y="1499"/>
      <point x="885" y="1499" type="qcurve" smooth="yes"/>
      <point x="1015" y="1499"/>
      <point x="1258" y="1413"/>
      <point x="1380" y="1323" type="qcurve"/>
      <point x="1573" y="1520" type="line"/>
      <point x="1671" y="1434" type="line"/>
      <point x="1473" y="1235" type="line"/>
      <point x="1569" y="1126"/>
      <point x="1665" y="879"/>
      <point x="1665" y="737" type="qcurve" smooth="yes"/>
      <point x="1665" y="600"/>
      <point x="1575" y="351"/>
      <point x="1487" y="246" type="qcurve" smooth="yes"/>
      <point x="1374" y="111"/>
      <point x="1060" y="-35"/>
      <point x="883" y="-35" type="qcurve" smooth="yes"/>
      <point x="754" y="-35"/>
      <point x="518" y="43"/>
      <point x="393" y="127" type="qcurve"/>
    </contour>
  </outline>
</glyph>
<glyph name="Thorn" format="2">
  <advance width="1139"/>
  <unicode hex="00DE"/>
  <outline>
    <contour>
      <point x="479" y="549" type="line"/>
      <point x="524" y="549" type="line" smooth="yes"/>
      <point x="652" y="549"/>
      <point x="768" y="657"/>
      <point x="768" y="774" type="qcurve" smooth="yes"/>
      <point x="768" y="882"/>
      <point x="653" y="979"/>
      <point x="524" y="979" type="qcurve" smooth="yes"/>
      <point x="479" y="979" type="line"/>
    </contour>
    <contour>
      <point x="164" y="0" type="line"/>
      <point x="164" y="1464" type="line"/>
      <point x="479" y="1464" type="line"/>
      <point x="479" y="1212" type="line"/>
      <point x="524" y="1212" type="line" smooth="yes"/>
      <point x="811" y="1212"/>
      <point x="1087" y="990"/>
      <point x="1087" y="760" type="qcurve" smooth="yes"/>
      <point x="1087" y="548"/>
      <point x="810" y="307"/>
      <point x="565" y="307" type="qcurve" smooth="yes"/>
      <point x="479" y="307" type="line"/>
      <point x="479" y="0" type="line"/>
    </contour>
  </outline>
</glyph>
<glyph name="germandbls" format="2">
  <advance width="1235"/>
  <unicode hex="00DF"/>
  <outline>
    <contour>
      <point x="139" y="0" type="line"/>
      <point x="139" y="1034" type="line" smooth="yes"/>
      <point x="139" y="1160"/>
      <point x="160" y="1294"/>
      <point x="184" y="1348" type="qcurve" smooth="yes"/>
      <point x="233" y="1452"/>
      <point x="456" y="1569"/>
      <point x="610" y="1569" type="qcurve" smooth="yes"/>
      <point x="831" y="1569"/>
      <point x="1071" y="1367"/>
      <point x="1071" y="1182" type="qcurve" smooth="yes"/>
      <point x="1071" y="1070"/>
      <point x="968" y="917"/>
      <point x="844" y="846" type="qcurve"/>
      <point x="992" y="827"/>
      <point x="1157" y="617"/>
      <point x="1157" y="446" type="qcurve" smooth="yes"/>
      <point x="1157" y="222"/>
      <point x="894" y="-23"/>
      <point x="651" y="-23" type="qcurve" smooth="yes"/>
      <point x="626" y="-23"/>
      <point x="572" y="-20"/>
      <point x="543" y="-18" type="qcurve"/>
      <point x="543" y="211" type="line"/>
      <point x="558" y="210"/>
      <point x="589" y="209"/>
      <point x="610" y="209" type="qcurve" smooth="yes"/>
      <point x="736" y="209"/>
      <point x="870" y="337"/>
      <point x="870" y="457" type="qcurve" smooth="yes"/>
      <point x="870" y="586"/>
      <point x="721" y="715"/>
      <point x="571" y="715" type="qcurve"/>
      <point x="571" y="715"/>
      <point x="568" y="714" type="qcurve" smooth="yes"/>
      <point x="555" y="713"/>
      <point x="543" y="713" type="qcurve"/>
      <point x="543" y="936" type="line"/>
      <point x="561" y="936" type="line" smooth="yes"/>
      <point x="675" y="936"/>
      <point x="786" y="1044"/>
      <point x="786" y="1153" type="qcurve" smooth="yes"/>
      <point x="786" y="1236"/>
      <point x="694" y="1333"/>
      <point x="614" y="1333" type="qcurve" smooth="yes"/>
      <point x="505" y="1333"/>
      <point x="424" y="1164"/>
      <point x="424" y="836" type="qcurve" smooth="yes"/>
      <point x="424" y="725" type="line"/>
      <point x="424" y="0" type="line"/>
    </contour>
  </outline>
</glyph>
<glyph name="aring" format="2">
  <advance width="1251"/>
  <unicode hex="00E5"/>
  <outline>
    <contour>
      <point x="506" y="1343" type="qcurve" smooth="yes"/>
      <point x="506" y="1292"/>
      <point x="577" y="1221"/>
      <point x="629" y="1221" type="qcurve" smooth="yes"/>
      <point x="679" y="1221"/>
      <point x="752" y="1293"/>
      <point x="752" y="1343" type="qcurve" smooth="yes"/>
      <point x="752" y="1394"/>
      <point x="680" y="1464"/>
      <point x="629" y="1464" type="qcurve" smooth="yes"/>
      <point x="577" y="1464"/>
      <point x="506" y="1394"/>
    </contour>
    <contour>
      <point x="362" y="1343" type="qcurve" smooth="yes"/>
      <point x="362" y="1454"/>
      <point x="518" y="1610"/>
      <point x="629" y="1610" type="qcurve" smooth="yes"/>
      <point x="739" y="1610"/>
      <point x="895" y="1454"/>
      <point x="895" y="1343" type="qcurve" smooth="yes"/>
      <point x="895" y="1232"/>
      <point x="740" y="1077"/>
      <point x="629" y="1077" type="qcurve" smooth="yes"/>
      <point x="518" y="1077"/>
      <point x="362" y="1232"/>
    </contour>
    <contour>
      <point x="862" y="492" type="qcurve" smooth="yes"/>
      <point x="862" y="624"/>
      <point x="729" y="778"/>
      <point x="616" y="778" type="qcurve" smooth="yes"/>
      <point x="500" y="778"/>
      <point x="367" y="625"/>
      <point x="367" y="492" type="qcurve" smooth="yes"/>
      <point x="367" y="359"/>
      <point x="498" y="211"/>
      <point x="614" y="211" type="qcurve" smooth="yes"/>
      <point x="732" y="211"/>
      <point x="862" y="359"/>
    </contour>
    <contour>
      <point x="1122" y="0" type="line"/>
      <point x="846" y="0" type="line"/>
      <point x="850" y="141" type="line"/>
      <point x="792" y="48"/>
      <point x="629" y="-39"/>
      <point x="512" y="-39" type="qcurve" smooth="yes"/>
      <point x="317" y="-39"/>
      <point x="78" y="251"/>
      <point x="78" y="489" type="qcurve" smooth="yes"/>
      <point x="78" y="737"/>
      <point x="313" y="1014"/>
      <point x="522" y="1014" type="qcurve" smooth="yes"/>
      <point x="631" y="1014"/>
      <point x="796" y="916"/>
      <point x="852" y="819" type="qcurve"/>
      <point x="852" y="981" type="line"/>
      <point x="1122" y="981" type="line"/>
    </contour>
  </outline>
</glyph>
<glyph name="thorn" format="2">
  <advance width="1266"/>
  <unicode hex="00FE"/>
  <outline>
    <contour>
      <point x="399" y="492" type="qcurve" smooth="yes"/>
      <point x="399" y="359"/>
      <point x="530" y="211"/>
      <point x="647" y="211" type="qcurve" smooth="yes"/>
      <point x="765" y="211"/>
      <point x="895" y="358"/>
      <point x="895" y="492" type="qcurve" smooth="yes"/>
      <point x="895" y="625"/>
      <point x="762" y="778"/>
      <point x="645" y="778" type="qcurve" smooth="yes"/>
      <point x="532" y="778"/>
      <point x="399" y="625"/>
    </contour>
    <contour>
      <point x="414" y="141" type="qcurve"/>
      <point x="419" y="107"/>
      <point x="424" y="31"/>
      <point x="424" y="-39" type="qcurve" smooth="yes"/>
      <point x="424" y="-446" type="line"/>
      <point x="139" y="-446" type="line"/>
      <point x="139" y="1550" type="line"/>
      <point x="424" y="1550" type="line"/>
      <point x="424" y="958" type="line" smooth="yes"/>
      <point x="424" y="919"/>
      <point x="418" y="852"/>
      <point x="412" y="819" type="qcurve"/>
      <point x="468" y="917"/>
      <point x="631" y="1014"/>
      <point x="739" y="1014" type="qcurve" smooth="yes"/>
      <point x="948" y="1014"/>
      <point x="1184" y="737"/>
      <point x="1184" y="489" type="qcurve" smooth="yes"/>
      <point x="1184" y="250"/>
      <point x="946" y="-39"/>
      <point x="752" y="-39" type="qcurve" smooth="yes"/>
      <point x="635" y="-39"/>
      <point x="472" y="48"/>
    </contour>
  </outline>
</glyph>
<glyph name="dcroat" format="2">
  <advance width="1280"/>
  <unicode hex="0111"/>
  <outline>
    <contour>
      <point x="862" y="805" type="qcurve"/>
      <point x="857" y="836"/>
      <point x="852" y="909"/>
      <point x="852" y="979" type="qcurve" smooth="yes"/>
      <point x="852" y="1161" type="line"/>
      <point x="518" y="1161" type="line"/>
      <point x="518" y="1337" type="line"/>
      <point x="852" y="1337" type="line"/>
      <point x="852" y="1550" type="line"/>
      <point x="1122" y="1550" type="line"/>
      <point x="1122" y="1337" type="line"/>
      <point x="1280" y="1337" type="line"/>
      <point x="1280" y="1161" type="line"/>
      <point x="1122" y="1161" type="line"/>
      <point x="1122" y="0" type="line"/>
      <point x="846" y="0" type="line"/>
      <point x="850" y="141" type="line"/>
      <point x="792" y="48"/>
      <point x="629" y="-39"/>
      <point x="512" y="-39" type="qcurve" smooth="yes"/>
      <point x="320" y="-39"/>
      <point x="78" y="248"/>
      <point x="78" y="477" type="qcurve" smooth="yes"/>
      <point x="78" y="725"/>
      <point x="312" y="1001"/>
      <point x="522" y="1001" type="qcurve" smooth="yes"/>
      <point x="627" y="1001"/>
      <point x="791" y="907"/>
    </contour>
    <contour>
      <point x="367" y="485" type="qcurve" smooth="yes"/>
      <point x="367" y="359"/>
      <point x="500" y="211"/>
      <point x="614" y="211" type="qcurve" smooth="yes"/>
      <point x="730" y="211"/>
      <point x="862" y="358"/>
      <point x="862" y="485" type="qcurve" smooth="yes"/>
      <point x="862" y="615"/>
      <point x="729" y="768"/>
      <point x="616" y="768" type="qcurve" smooth="yes"/>
      <point x="501" y="768"/>
      <point x="367" y="616"/>
    </contour>
  </outline>
</glyph>
<glyph name="Lslash" format="2">
  <advance width="1026"/>
  <unicode hex="0141"/>
  <outline>
    <contour>
      <point x="180" y="0" type="line"/>
      <point x="180" y="512" type="line"/>
      <point x="59" y="428" type="line"/>
      <point x="-63" y="614" type="line"/>
      <point x="180" y="786" type="line"/>
      <point x="180" y="1464" type="line"/>
      <point x="494" y="1464" type="line"/>
      <point x="494" y="973" type="line"/>
      <point x="700" y="1116" type="line"/>
      <point x="823" y="928" type="line"/>
      <point x="494" y="698" type="line"/>
      <point x="494" y="266" type="line"/>
      <point x="993" y="266" type="line"/>
      <point x="993" y="0" type="line"/>
    </contour>
  </outline>
</glyph>
<glyph name="OE" format="2">
  <advance width="2339"/>
  <unicode hex="0152"/>
  <outline>
    <contour>
      <point x="1346" y="1464" type="line"/>
      <point x="2208" y="1464" type="line"/>
      <point x="2208" y="1200" type="line"/>
      <point x="1659" y="1200" type="line"/>
      <point x="1659" y="899" type="line"/>
      <point x="2208" y="899" type="line"/>
      <point x="2208" y="633" type="line"/>
      <point x="1659" y="633" type="line"/>
      <point x="1659" y="266" type="line"/>
      <point x="2208" y="266" type="line"/>
      <point x="2208" y="0" type="line"/>
      <point x="1346" y="0" type="line"/>
      <point x="1343" y="166" type="line"/>
      <point x="1268" y="63"/>
      <point x="1042" y="-35"/>
      <point x="881" y="-35" type="qcurve" smooth="yes"/>
      <point x="748" y="-35"/>
      <point x="499" y="54"/>
      <point x="395" y="139" type="qcurve" smooth="yes"/>
      <point x="261" y="251"/>
      <point x="115" y="559"/>
      <point x="115" y="731" type="qcurve" smooth="yes"/>
      <point x="115" y="884"/>
      <point x="230" y="1163"/>
      <point x="340" y="1276" type="qcurve" smooth="yes"/>
      <point x="450" y="1388"/>
      <point x="718" y="1497"/>
      <point x="881" y="1497" type="qcurve" smooth="yes"/>
      <point x="1033" y="1497"/>
      <point x="1262" y="1397"/>
      <point x="1348" y="1292" type="qcurve"/>
    </contour>
    <contour>
      <point x="889" y="240" type="qcurve" smooth="yes"/>
      <point x="1090" y="240"/>
      <point x="1339" y="510"/>
      <point x="1339" y="729" type="qcurve" smooth="yes"/>
      <point x="1339" y="945"/>
      <point x="1088" y="1223"/>
      <point x="889" y="1223" type="qcurve" smooth="yes"/>
      <point x="695" y="1223"/>
      <point x="438" y="938"/>
      <point x="438" y="729" type="qcurve" smooth="yes"/>
      <point x="438" y="516"/>
      <point x="690" y="240"/>
    </contour>
  </outline>
</glyph>
<glyph name="oe" format="2">
  <advance width="2050"/>
  <unicode hex="0153"/>
  <outline>
    <contour>
      <point x="1651" y="592" type="line"/>
      <point x="1638" y="684"/>
      <point x="1521" y="780"/>
      <point x="1419" y="780" type="qcurve" smooth="yes"/>
      <point x="1320" y="780"/>
      <point x="1202" y="686"/>
      <point x="1184" y="592" type="qcurve"/>
    </contour>
    <contour>
      <point x="1943" y="420" type="qcurve"/>
      <point x="1176" y="420" type="line"/>
      <point x="1192" y="314"/>
      <point x="1317" y="209"/>
      <point x="1425" y="209" type="qcurve" smooth="yes"/>
      <point x="1506" y="209"/>
      <point x="1623" y="269"/>
      <point x="1663" y="330" type="qcurve"/>
      <point x="1905" y="215" type="line"/>
      <point x="1825" y="90"/>
      <point x="1586" y="-39"/>
      <point x="1432" y="-39" type="qcurve" smooth="yes"/>
      <point x="1288" y="-39"/>
      <point x="1073" y="55"/>
      <point x="1018" y="141" type="qcurve"/>
      <point x="940" y="47"/>
      <point x="749" y="-39"/>
      <point x="616" y="-39" type="qcurve" smooth="yes"/>
      <point x="383" y="-39"/>
      <point x="76" y="262"/>
      <point x="76" y="487" type="qcurve" smooth="yes"/>
      <point x="76" y="713"/>
      <point x="389" y="1014"/>
      <point x="627" y="1014" type="qcurve" smooth="yes"/>
      <point x="761" y="1014"/>
      <point x="949" y="922"/>
      <point x="1016" y="825" type="qcurve"/>
      <point x="1085" y="923"/>
      <point x="1276" y="1014"/>
      <point x="1413" y="1014" type="qcurve" smooth="yes"/>
      <point x="1659" y="1014"/>
      <point x="1946" y="742"/>
      <point x="1946" y="510" type="qcurve" smooth="yes"/>
      <point x="1946" y="480"/>
      <point x="1945" y="441"/>
    </contour>
    <contour>
      <point x="881" y="487" type="qcurve" smooth="yes"/>
      <point x="881" y="608"/>
      <point x="740" y="752"/>
      <point x="623" y="752" type="qcurve" smooth="yes"/>
      <point x="505" y="752"/>
      <point x="365" y="608"/>
      <point x="365" y="487" type="qcurve" smooth="yes"/>
      <point x="365" y="367"/>
      <point x="505" y="223"/>
      <point x="623" y="223" type="qcurve" smooth="yes"/>
      <point x="740" y="223"/>
      <point x="881" y="367"/>
    </contour>
  </outline>
</glyph>
<glyph name="florin" format="2">
  <advance width="1255"/>
  <unicode hex="0192"/>
  <outline>
    <contour>
      <point x="958" y="737" type="line"/>
      <point x="756" y="737" type="line"/>
      <point x="668" y="25" type="line" smooth="yes"/>
      <point x="634" y="-248"/>
      <point x="469" y="-451"/>
      <point x="297" y="-451" type="qcurve" smooth="yes"/>
      <point x="254" y="-451"/>
      <point x="179" y="-429"/>
      <point x="139" y="-406" type="qcurve"/>
      <point x="184" y="-201" type="line"/>
      <point x="208" y="-211"/>
      <point x="248" y="-221"/>
      <point x="264" y="-221" type="qcurve" smooth="yes"/>
      <point x="333" y="-221"/>
      <point x="393" y="-120"/>
      <point x="416" y="86" type="qcurve" smooth="yes"/>
      <point x="492" y="737" type="line"/>
      <point x="303" y="737" type="line"/>
      <point x="322" y="948" type="line"/>
      <point x="518" y="948" type="line"/>
      <point x="535" y="1100" type="line" smooth="yes"/>
      <point x="558" y="1298"/>
      <point x="703" y="1479"/>
      <point x="838" y="1479" type="qcurve" smooth="yes"/>
      <point x="887" y="1479"/>
      <point x="989" y="1458"/>
      <point x="1042" y="1438" type="qcurve"/>
      <point x="1024" y="1235" type="line"/>
      <point x="979" y="1255"/>
      <point x="936" y="1268"/>
      <point x="918" y="1268" type="qcurve" smooth="yes"/>
      <point x="862" y="1268"/>
      <point x="809" y="1189"/>
      <point x="793" y="1057" type="qcurve" smooth="yes"/>
      <point x="780" y="948" type="line"/>
      <point x="981" y="948" type="line"/>
    </contour>
  </outline>
</glyph>
<glyph name="caron" format="2">
  <advance width="1024"/>
  <unicode hex="02C7"/>
  <outline>
    <contour>
      <point x="197" y="1495" type="line"/>
      <point x="336" y="1495" type="line"/>
      <point x="512" y="1278" type="line"/>
      <point x="686" y="1495" type="line"/>
      <point x="827" y="1495" type="line"/>
      <point x="631" y="1126" type="line"/>
      <point x="393" y="1126" type="line"/>
    </contour>
  </outline>
</glyph>
<glyph name="dotaccent" format="2">
  <advance width="1024"/>
  <unicode hex="02D9"/>
  <outline>
    <contour>
      <point x="377" y="1307" type="qcurve" smooth="yes"/>
      <point x="377" y="1360"/>
      <point x="459" y="1444"/>
      <point x="512" y="1444" type="qcurve" smooth="yes"/>
      <point x="567" y="1444"/>
      <point x="649" y="1362"/>
      <point x="649" y="1307" type="qcurve" smooth="yes"/>
      <point x="649" y="1249"/>
      <point x="571" y="1171"/>
      <point x="512" y="1171" type="qcurve" smooth="yes"/>
      <point x="457" y="1171"/>
      <point x="377" y="1251"/>
    </contour>
  </outline>
</glyph>
<glyph name="ring" format="2">
  <advance width="1024"/>
  <unicode hex="02DA"/>
  <outline>
    <contour>
      <point x="391" y="1372" type="qcurve" smooth="yes"/>
      <point x="391" y="1321"/>
      <point x="460" y="1251"/>
      <point x="512" y="1251" type="qcurve" smooth="yes"/>
      <point x="563" y="1251"/>
      <point x="635" y="1322"/>
      <point x="635" y="1372" type="qcurve" smooth="yes"/>
      <point x="635" y="1423"/>
      <point x="563" y="1495"/>
      <point x="512" y="1495" type="qcurve" smooth="yes"/>
      <point x="461" y="1495"/>
      <point x="391" y="1424"/>
    </contour>
    <contour>
      <point x="248" y="1372" type="qcurve" smooth="yes"/>
      <point x="248" y="1483"/>
      <point x="402" y="1638"/>
      <point x="512" y="1638" type="qcurve" smooth="yes"/>
      <point x="623" y="1638"/>
      <point x="778" y="1483"/>
      <point x="778" y="1372" type="qcurve" smooth="yes"/>
      <point x="778" y="1261"/>
      <point x="623" y="1106"/>
      <point x="512" y="1106" type="qcurve" smooth="yes"/>
      <point x="401" y="1106"/>
      <point x="248" y="1260"/>
    </contour>
  </outline>
</glyph>
<glyph name="ogonek" format="2">
  <advance width="1024"/>
  <unicode hex="02DB"/>
  <outline>
    <contour>
      <point x="627" y="0" type="line"/>
      <point x="565" y="-50"/>
      <point x="500" y="-155"/>
      <point x="500" y="-205" type="qcurve" smooth="yes"/>
      <point x="500" y="-245"/>
      <point x="540" y="-285"/>
      <point x="582" y="-285" type="qcurve" smooth="yes"/>
      <point x="684" y="-285" type="line"/>
      <point x="684" y="-459" type="line"/>
      <point x="578" y="-459" type="line" smooth="yes"/>
      <point x="460" y="-459"/>
      <point x="340" y="-366"/>
      <point x="340" y="-274" type="qcurve" smooth="yes"/>
      <point x="340" y="-203"/>
      <point x="430" y="-73"/>
      <point x="530" y="0" type="qcurve"/>
    </contour>
  </outline>
</glyph>
<glyph name="hungarumlaut" format="2">
  <advance width="1024"/>
  <unicode hex="02DD"/>
  <outline>
    <contour>
      <point x="563" y="1126" type="line"/>
      <point x="717" y="1495" type="line"/>
      <point x="946" y="1495" type="line"/>
      <point x="676" y="1126" type="line"/>
    </contour>
    <contour>
      <point x="295" y="1126" type="line"/>
      <point x="410" y="1495" type="line"/>
      <point x="631" y="1495" type="line"/>
      <point x="399" y="1126" type="line"/>
    </contour>
  </outline>
</glyph>
<glyph name="Omega" format="2">
  <advance width="1575"/>
  <unicode hex="03A9"/>
  <outline>
    <contour>
      <point x="1227" y="256" type="qcurve"/>
      <point x="1518" y="256" type="line"/>
      <point x="1518" y="0" type="line"/>
      <point x="909" y="0" type="line"/>
      <point x="909" y="291" type="line"/>
      <point x="1035" y="377"/>
      <point x="1167" y="640"/>
      <point x="1167" y="805" type="qcurve" smooth="yes"/>
      <point x="1167" y="1008"/>
      <point x="964" y="1241"/>
      <point x="786" y="1241" type="qcurve" smooth="yes"/>
      <point x="609" y="1241"/>
      <point x="406" y="1008"/>
      <point x="406" y="805" type="qcurve" smooth="yes"/>
      <point x="406" y="641"/>
      <point x="538" y="376"/>
      <point x="664" y="291" type="qcurve"/>
      <point x="664" y="0" type="line"/>
      <point x="55" y="0" type="line"/>
      <point x="55" y="256" type="line"/>
      <point x="346" y="256" type="line"/>
      <point x="220" y="377"/>
      <point x="98" y="655"/>
      <point x="98" y="819" type="qcurve" smooth="yes"/>
      <point x="98" y="1132"/>
      <point x="474" y="1509"/>
      <point x="786" y="1509" type="qcurve" smooth="yes"/>
      <point x="1099" y="1509"/>
      <point x="1475" y="1132"/>
      <point x="1475" y="819" type="qcurve" smooth="yes"/>
      <point x="1475" y="655"/>
      <point x="1353" y="377"/>
    </contour>
  </outline>
</glyph>
<glyph name="quoteleft" format="2">
  <advance width="629"/>
  <unicode hex="2018"/>
  <outline>
    <contour>
      <point x="563" y="1464" type="line"/>
      <point x="373" y="838" type="line"/>
      <point x="63" y="838" type="line"/>
      <point x="373" y="1464" type="line"/>
    </contour>
  </outline>
</glyph>
<glyph name="quoteright" format="2">
  <advance width="629"/>
  <unicode hex="2019"/>
  <outline>
    <contour>
      <point x="63" y="838" type="line"/>
      <point x="256" y="1464" type="line"/>
      <point x="563" y="1464" type="line"/>
      <point x="254" y="838" type="line"/>
    </contour>
  </outline>
</glyph>
<glyph name="quotedblleft" format="2">
  <advance width="1090"/>
  <unicode hex="201C"/>
  <outline>
    <contour>
      <point x="1038" y="1464" type="line"/>
      <point x="848" y="838" type="line"/>
      <point x="539" y="838" type="line"/>
      <point x="848" y="1464" type="line"/>
    </contour>
    <contour>
      <point x="551" y="1464" type="line"/>
      <point x="360" y="838" type="line"/>
      <point x="51" y="838" type="line"/>
      <point x="360" y="1464" type="line"/>
    </contour>
  </outline>
</glyph>
<glyph name="quotedblbase" format="2">
  <advance width="1090"/>
  <unicode hex="201E"/>
  <outline>
    <contour>
      <point x="539" y="-332" type="line"/>
      <point x="729" y="295" type="line"/>
      <point x="1038" y="295" type="line"/>
      <point x="729" y="-332" type="line"/>
    </contour>
    <contour>
      <point x="51" y="-332" type="line"/>
      <point x="244" y="295" type="line"/>
      <point x="551" y="295" type="line"/>
      <point x="242" y="-332" type="line"/>
    </contour>
  </outline>
</glyph>
<glyph name="dagger" format="2">
  <advance width="1176"/>
  <unicode hex="2020"/>
  <outline>
    <contour>
      <point x="446" y="-446" type="line"/>
      <point x="446" y="705" type="line"/>
      <point x="66" y="705" type="line"/>
      <point x="66" y="961" type="line"/>
      <point x="446" y="961" type="line"/>
      <point x="446" y="1464" type="line"/>
      <point x="729" y="1464" type="line"/>
      <point x="729" y="961" type="line"/>
      <point x="1110" y="961" type="line"/>
      <point x="1110" y="705" type="line"/>
      <point x="729" y="705" type="line"/>
      <point x="729" y="-446" type="line"/>
    </contour>
  </outline>
</glyph>
<glyph name="bullet" format="2">
  <advance width="1208"/>
  <unicode hex="2022"/>
  <outline>
    <contour>
      <point x="307" y="762" type="qcurve" smooth="yes"/>
      <point x="307" y="885"/>
      <point x="481" y="1057"/>
      <point x="604" y="1057" type="qcurve" smooth="yes"/>
      <point x="726" y="1057"/>
      <point x="899" y="884"/>
      <point x="899" y="762" type="qcurve" smooth="yes"/>
      <point x="899" y="640"/>
      <point x="724" y="465"/>
      <point x="602" y="465" type="qcurve" smooth="yes"/>
      <point x="479" y="465"/>
      <point x="307" y="639"/>
    </contour>
  </outline>
</glyph>
<glyph name="guilsinglleft" format="2">
  <advance width="639"/>
  <unicode hex="2039"/>
  <outline>
    <contour>
      <point x="575" y="836" type="line"/>
      <point x="297" y="485" type="line"/>
      <point x="567" y="139" type="line"/>
      <point x="418" y="33" type="line"/>
      <point x="66" y="487" type="line"/>
      <point x="422" y="942" type="line"/>
    </contour>
  </outline>
</glyph>
<glyph name="partialdiff" format="2">
  <advance width="1094"/>
  <unicode hex="2202"/>
  <outline>
    <contour>
      <point x="762" y="662" type="qcurve"/>
      <point x="781" y="761"/>
      <point x="801" y="940"/>
      <point x="801" y="1006" type="qcurve" smooth="yes"/>
      <point x="801" y="1106"/>
      <point x="749" y="1221"/>
      <point x="705" y="1221" type="qcurve" smooth="yes"/>
      <point x="661" y="1221"/>
      <point x="457" y="1075"/>
      <point x="399" y="1075" type="qcurve" smooth="yes"/>
      <point x="357" y="1075"/>
      <point x="299" y="1135"/>
      <point x="299" y="1178" type="qcurve" smooth="yes"/>
      <point x="299" y="1242"/>
      <point x="472" y="1350"/>
      <point x="596" y="1350" type="qcurve" smooth="yes"/>
      <point x="788" y="1350"/>
      <point x="1022" y="1027"/>
      <point x="1022" y="756" type="qcurve" smooth="yes"/>
      <point x="1022" y="417"/>
      <point x="709" y="-25"/>
      <point x="469" y="-25" type="qcurve" smooth="yes"/>
      <point x="298" y="-25"/>
      <point x="76" y="204"/>
      <point x="76" y="381" type="qcurve" smooth="yes"/>
      <point x="76" y="579"/>
      <point x="308" y="842"/>
      <point x="479" y="842" type="qcurve" smooth="yes"/>
      <point x="581" y="842"/>
      <point x="717" y="755"/>
    </contour>
    <contour>
      <point x="700" y="518" type="qcurve" smooth="yes"/>
      <point x="700" y="634"/>
      <point x="623" y="758"/>
      <point x="551" y="758" type="qcurve" smooth="yes"/>
      <point x="450" y="758"/>
      <point x="317" y="490"/>
      <point x="317" y="283" type="qcurve" smooth="yes"/>
      <point x="317" y="166"/>
      <point x="394" y="45"/>
      <point x="467" y="45" type="qcurve" smooth="yes"/>
      <point x="568" y="45"/>
      <point x="700" y="312"/>
    </contour>
  </outline>
</glyph>
<glyph name="Delta" format="2">
  <advance width="1427"/>
  <unicode hex="2206"/>
  <outline>
    <contour>
      <point x="713" y="1110" type="line"/>
      <point x="387" y="256" type="line"/>
      <point x="1040" y="256" type="line"/>
    </contour>
    <contour>
      <point x="563" y="1473" type="line"/>
      <point x="864" y="1473" type="line"/>
      <point x="1427" y="0" type="line"/>
      <point x="0" y="0" type="line"/>
    </contour>
  </outline>
</glyph>
<glyph name="summation" format="2">
  <advance width="1470"/>
  <unicode hex="2211"/>
  <outline>
    <contour>
      <point x="66" y="1473" type="line"/>
      <point x="1374" y="1473" type="line"/>
      <point x="1374" y="1208" type="line"/>
      <point x="496" y="1208" type="line"/>
      <point x="1116" y="563" type="line"/>
      <point x="494" y="-127" type="line"/>
      <point x="1427" y="-127" type="line"/>
      <point x="1427" y="-393" type="line"/>
      <point x="41" y="-393" type="line"/>
      <point x="41" y="-221" type="line"/>
      <point x="739" y="551" type="line"/>
      <point x="66" y="1241" type="line"/>
    </contour>
  </outline>
</glyph>
<glyph name="minus" format="2">
  <advance width="1706"/>
  <unicode hex="2212"/>
  <outline>
    <contour>
      <point x="254" y="713" type="line"/>
      <point x="1452" y="713" type="line"/>
      <point x="1452" y="510" type="line"/>
      <point x="254" y="510" type="line"/>
    </contour>
  </outline>
</glyph>
<glyph name="radical" format="2">
  <advance width="1346"/>
  <unicode hex="221A"/>
  <outline>
    <contour>
      <point x="1141" y="1694" type="line"/>
      <point x="1348" y="1694" type="line"/>
      <point x="1348" y="1565" type="line"/>
      <point x="1245" y="1565" type="line"/>
      <point x="653" y="-41" type="line"/>
      <point x="553" y="-41" type="line"/>
      <point x="242" y="817" type="line"/>
      <point x="102" y="766" type="line"/>
      <point x="72" y="879" type="line"/>
      <point x="403" y="995" type="line"/>
      <point x="639" y="334" type="line"/>
    </contour>
  </outline>
</glyph>
<glyph name="infinity" format="2">
  <advance width="1706"/>
  <unicode hex="221E"/>
  <outline>
    <contour>
      <point x="942" y="561" type="qcurve"/>
      <point x="987" y="486"/>
      <point x="1110" y="410"/>
      <point x="1188" y="410" type="qcurve" smooth="yes"/>
      <point x="1282" y="410"/>
      <point x="1399" y="521"/>
      <point x="1399" y="610" type="qcurve" smooth="yes"/>
      <point x="1399" y="696"/>
      <point x="1291" y="809"/>
      <point x="1210" y="809" type="qcurve" smooth="yes"/>
      <point x="1136" y="809"/>
      <point x="1012" y="695"/>
    </contour>
    <contour>
      <point x="766" y="659" type="qcurve"/>
      <point x="720" y="735"/>
      <point x="598" y="809"/>
      <point x="520" y="809" type="qcurve" smooth="yes"/>
      <point x="427" y="809"/>
      <point x="309" y="696"/>
      <point x="309" y="608" type="qcurve" smooth="yes"/>
      <point x="309" y="523"/>
      <point x="417" y="410"/>
      <point x="498" y="410" type="qcurve" smooth="yes"/>
      <point x="573" y="410"/>
      <point x="699" y="526"/>
    </contour>
    <contour>
      <point x="858" y="457" type="qcurve"/>
      <point x="789" y="324"/>
      <point x="633" y="199"/>
      <point x="537" y="199" type="qcurve" smooth="yes"/>
      <point x="398" y="199"/>
      <point x="205" y="434"/>
      <point x="205" y="610" type="qcurve" smooth="yes"/>
      <point x="205" y="794"/>
      <point x="376" y="1020"/>
      <point x="514" y="1020" type="qcurve" smooth="yes"/>
      <point x="607" y="1020"/>
      <point x="760" y="903"/>
      <point x="848" y="762" type="qcurve"/>
      <point x="916" y="894"/>
      <point x="1076" y="1022"/>
      <point x="1171" y="1022" type="qcurve" smooth="yes"/>
      <point x="1310" y="1022"/>
      <point x="1503" y="786"/>
      <point x="1503" y="610" type="qcurve" smooth="yes"/>
      <point x="1503" y="427"/>
      <point x="1331" y="201"/>
      <point x="1194" y="201" type="qcurve" smooth="yes"/>
      <point x="1101" y="201"/>
      <point x="950" y="314"/>
    </contour>
  </outline>
</glyph>
<glyph name="integral" format="2">
  <advance width="1186"/>
  <unicode hex="222B"/>
  <outline>
    <contour>
      <point x="342" y="-252" type="qcurve" smooth="yes"/>
      <point x="444" y="-252"/>
      <point x="463" y="387" type="qcurve" smooth="yes"/>
      <point x="466" y="523"/>
      <point x="469" y="598" type="qcurve" smooth="yes"/>
      <point x="485" y="1106"/>
      <point x="699" y="1554"/>
      <point x="920" y="1554" type="qcurve" smooth="yes"/>
      <point x="1018" y="1554"/>
      <point x="1137" y="1456"/>
      <point x="1137" y="1376" type="qcurve" smooth="yes"/>
      <point x="1137" y="1316"/>
      <point x="1061" y="1243"/>
      <point x="999" y="1243" type="qcurve" smooth="yes"/>
      <point x="953" y="1243"/>
      <point x="891" y="1291"/>
      <point x="881" y="1335" type="qcurve" smooth="yes"/>
      <point x="876" y="1355"/>
      <point x="874" y="1389" type="qcurve" smooth="yes"/>
      <point x="871" y="1435"/>
      <point x="844" y="1436" type="qcurve" smooth="yes"/>
      <point x="745" y="1436"/>
      <point x="725" y="803" type="qcurve" smooth="yes"/>
      <point x="721" y="687"/>
      <point x="719" y="625" type="qcurve" smooth="yes"/>
      <point x="708" y="329"/>
      <point x="668" y="32"/>
      <point x="629" y="-70" type="qcurve" smooth="yes"/>
      <point x="573" y="-218"/>
      <point x="388" y="-373"/>
      <point x="266" y="-373" type="qcurve" smooth="yes"/>
      <point x="170" y="-373"/>
      <point x="49" y="-275"/>
      <point x="49" y="-197" type="qcurve" smooth="yes"/>
      <point x="49" y="-135"/>
      <point x="127" y="-61"/>
      <point x="193" y="-61" type="qcurve" smooth="yes"/>
      <point x="243" y="-61"/>
      <point x="313" y="-124"/>
      <point x="313" y="-164" type="qcurve" smooth="yes"/>
      <point x="313" y="-222"/>
      <point x="325" y="-252"/>
    </contour>
  </outline>
</glyph>
<glyph name="approxequal" format="2">
  <advance width="1706"/>
  <unicode hex="2248"/>
  <outline>
    <contour>
      <point x="1530" y="596" type="qcurve"/>
      <point x="1530" y="377" type="line"/>
      <point x="1424" y="305"/>
      <point x="1240" y="238"/>
      <point x="1151" y="238" type="qcurve" smooth="yes"/>
      <point x="1056" y="238"/>
      <point x="673" y="371"/>
      <point x="563" y="371" type="qcurve" smooth="yes"/>
      <point x="479" y="371"/>
      <point x="298" y="297"/>
      <point x="178" y="213" type="qcurve"/>
      <point x="178" y="432" type="line"/>
      <point x="289" y="505"/>
      <point x="480" y="575"/>
      <point x="565" y="575" type="qcurve" smooth="yes"/>
      <point x="689" y="575"/>
      <point x="1072" y="444"/>
      <point x="1155" y="444" type="qcurve" smooth="yes"/>
      <point x="1241" y="444"/>
      <point x="1417" y="515"/>
    </contour>
    <contour>
      <point x="1530" y="1008" type="qcurve"/>
      <point x="1530" y="788" type="line"/>
      <point x="1424" y="717"/>
      <point x="1243" y="651"/>
      <point x="1153" y="651" type="qcurve" smooth="yes"/>
      <point x="1059" y="651"/>
      <point x="675" y="782"/>
      <point x="563" y="782" type="qcurve" smooth="yes"/>
      <point x="481" y="782"/>
      <point x="305" y="712"/>
      <point x="178" y="625" type="qcurve"/>
      <point x="178" y="844" type="line"/>
      <point x="285" y="915"/>
      <point x="479" y="987"/>
      <point x="565" y="987" type="qcurve" smooth="yes"/>
      <point x="690" y="987"/>
      <point x="1073" y="856"/>
      <point x="1155" y="856" type="qcurve" smooth="yes"/>
      <point x="1239" y="856"/>
      <point x="1413" y="926"/>
    </contour>
  </outline>
</glyph>
<glyph name="lozenge" format="2">
  <advance width="1012"/>
  <unicode hex="25CA"/>
  <outline>
    <contour>
      <point x="506" y="1409" type="line"/>
      <point x="121" y="592" type="line"/>
      <point x="506" y="-233" type="line"/>
      <point x="891" y="592" type="line"/>
    </contour>
    <contour>
      <point x="506" y="1653" type="line"/>
      <point x="1006" y="592" type="line"/>
      <point x="506" y="-477" type="line"/>
      <point x="6" y="592" type="line"/>
    </contour>
  </outline>
</glyph>
<glyph name="fi" format="2">
  <advance width="1247"/>
  <unicode hex="F001"/>
  <outline>
    <contour>
      <point x="788" y="1384" type="qcurve" smooth="yes"/>
      <point x="788" y="1452"/>
      <point x="887" y="1550"/>
      <point x="954" y="1550" type="qcurve" smooth="yes"/>
      <point x="1024" y="1550"/>
      <point x="1122" y="1453"/>
      <point x="1122" y="1384" type="qcurve" smooth="yes"/>
      <point x="1122" y="1315"/>
      <point x="1023" y="1217"/>
      <point x="954" y="1217" type="qcurve" smooth="yes"/>
      <point x="887" y="1217"/>
      <point x="788" y="1317"/>
    </contour>
    <contour>
      <point x="813" y="0" type="line"/>
      <point x="813" y="981" type="line"/>
      <point x="1098" y="981" type="line"/>
      <point x="1098" y="0" type="line"/>
    </contour>
    <contour>
      <point x="174" y="0" type="line"/>
      <point x="174" y="758" type="line"/>
      <point x="47" y="758" type="line"/>
      <point x="47" y="981" type="line"/>
      <point x="174" y="981" type="line"/>
      <point x="174" y="1202" type="line" smooth="yes"/>
      <point x="174" y="1400"/>
      <point x="356" y="1571"/>
      <point x="565" y="1571" type="qcurve" smooth="yes"/>
      <point x="588" y="1571"/>
      <point x="649" y="1562"/>
      <point x="698" y="1550" type="qcurve"/>
      <point x="698" y="1323" type="line"/>
      <point x="672" y="1337"/>
      <point x="624" y="1350"/>
      <point x="598" y="1350" type="qcurve" smooth="yes"/>
      <point x="523" y="1350"/>
      <point x="459" y="1271"/>
      <point x="459" y="1174" type="qcurve" smooth="yes"/>
      <point x="459" y="981" type="line"/>
      <point x="641" y="981" type="line"/>
      <point x="641" y="758" type="line"/>
      <point x="459" y="758" type="line"/>
      <point x="459" y="0" type="line"/>
    </contour>
  </outline>
</glyph>
